<?xml version="1.0" encoding="UTF-8"?>
<svg width="185px" height="104px" viewBox="0 0 185 104" version="1.1" xmlns="http://www.w3.org/2000/svg" xmlns:xlink="http://www.w3.org/1999/xlink">
    <!-- Generator: Sketch 54.1 (76490) - https://sketchapp.com -->
    <title>Beauty</title>
    <desc>Created with Sketch.</desc>
    <g id="panel-header" stroke="none" stroke-width="1" fill="none" fill-rule="evenodd">
        <rect id="Rectangle" fill="#3F3B40" x="0" y="0" width="185" height="104"></rect>
        <path d="M0,82.0210526 C16.3333333,67.1157895 43,58.5263158 80,56.2526316 C117,53.9789474 152,45.8947368 185,32 L185,104 L0,104 L0,82.0210526 Z" id="Path-2-Copy" fill="#4A454B"></path>
        <g id="Group-21" transform="translate(65.000000, 10.000000)" fill="#FFFFFF">
            <circle id="Oval" cx="28" cy="28" r="28"></circle>
        </g>
        <g id="cream" transform="translate(78.000000, 24.000000)" fill-rule="nonzero">
            <path d="M18.0964651,12.5827692 C18.0964651,15.7831692 19.4949457,18.2904615 21.2806512,18.2904615 C23.0663566,18.2904615 24.4648372,15.7831692 24.4648372,12.5827692 C24.4648372,9.38236923 23.0663566,6.87507692 21.2806512,6.87507692 C19.4949457,6.87507692 18.0964651,9.38236923 18.0964651,12.5827692 Z M23.7051473,12.5827692 C23.7051473,15.2681846 22.5949147,17.5366154 21.2806512,17.5366154 C19.9663876,17.5366154 18.856155,15.2681846 18.856155,12.5827692 C18.856155,9.89735385 19.9663876,7.62892308 21.2806512,7.62892308 C22.5949147,7.62892308 23.7051473,9.89735385 23.7051473,12.5827692 Z" id="Shape" fill="#000000"></path>
            <path d="M27.6179845,0.206769231 L14.944186,0.206769231 C14.7345026,0.207006619 14.5645803,0.375621849 14.5643411,0.583692308 L14.5643411,2.45753846 C14.5643411,2.464 14.5665116,2.47046154 14.5665116,2.47692308 C14.5654253,2.48261609 14.5654253,2.48846084 14.5665116,2.49415385 L15.68,13.6769231 L15.2328682,13.6769231 L15.2328682,13.3129231 C15.2319996,12.4125135 14.5905055,11.6380026 13.7004651,11.4627692 C13.6349507,10.0392176 13.1504945,8.66591838 12.3069767,7.51261538 L11.3671318,6.22676923 C11.297044,6.13051666 11.18509,6.07297218 11.0654264,6.07169231 C10.9450636,6.06625002 10.8300268,6.12130198 10.7593798,6.21815385 L9.63069767,7.68061538 C8.89802387,8.6229743 7.76750405,9.17633303 6.56806202,9.17969231 C5.2417451,9.18112717 4.12107617,10.1560107 3.94604651,11.4606154 C3.04879357,11.6290558 2.39900827,12.4067792 2.39844961,13.3129231 L2.39844961,13.6769231 L1.88837209,13.6769231 C1.67868869,13.6771605 1.50876636,13.8457757 1.50852713,14.0538462 L1.50852713,16.5350769 L0.594728682,16.5350769 C0.493916829,16.5348475 0.397167375,16.5744852 0.325882443,16.6452218 C0.25459751,16.7159584 0.2146525,16.8119636 0.214883721,16.912 L0.214883721,21.1615385 C0.218069287,23.5114196 1.01004579,25.7932883 2.46573643,27.6467692 C2.53718432,27.7391695 2.64790229,27.7933065 2.76527132,27.7932308 L14.8660465,27.7932308 C14.9834155,27.7933065 15.0941335,27.7391695 15.1655814,27.6467692 C15.743311,26.9106382 16.2199346,26.1016133 16.5829457,25.2409231 L16.5829457,26.5375385 C16.5837829,27.2211775 17.1420692,27.7751693 17.8310078,27.776 L24.692093,27.776 C25.381329,27.7758811 25.9400352,27.2214726 25.940155,26.5375385 L25.940155,22.8695385 C25.9602192,22.8305536 25.9727354,22.7881798 25.9770543,22.7446154 L27.9956589,2.49415385 L27.9956589,2.47692308 C27.9956589,2.47046154 27.9978295,2.464 27.9978295,2.45753846 L27.9978295,0.583692308 C27.9975902,0.375621849 27.8276679,0.207006619 27.6179845,0.206769231 L27.6179845,0.206769231 Z" id="Shape" fill="#FFFFFF"></path>
            <path d="M3.15813953,13.3129231 C3.16005428,12.687523 3.67176469,12.1816759 4.3020155,12.1821538 L7.52093023,12.1821538 C7.73071281,12.1821538 7.90077519,12.0133996 7.90077519,11.8052308 C7.90077519,11.5970619 7.73071281,11.4283077 7.52093023,11.4283077 L4.72093023,11.4283077 C4.90195686,10.5587002 5.67321208,9.93457122 6.56806202,9.93353846 C8.00315561,9.92952992 9.3557213,9.26719557 10.231938,8.13938462 L11.0524031,7.07969231 L11.6905426,7.95630769 C12.4337078,8.97048829 12.8656144,10.1762086 12.9342636,11.4283077 L12.2006202,11.4283077 C11.9908376,11.4283077 11.8207752,11.5970619 11.8207752,11.8052308 C11.8207752,12.0133996 11.9908376,12.1821538 12.2006202,12.1821538 L13.2555039,12.1821538 C13.2679064,12.1817843 13.2802528,12.1803429 13.2924031,12.1778462 C13.3038208,12.1803409 13.3154465,12.1817829 13.3271318,12.1821538 L13.3336434,12.1821538 C13.9623969,12.1835751 14.471746,12.6890061 14.4731783,13.3129231 L14.4731783,13.6769231 L3.15813953,13.6769231 L3.15813953,13.3129231 Z" id="Path" fill="#3F3B40"></path>
            <path d="M2.26821705,15.8587692 L6.88930233,15.8587692 C7.0990849,15.8587692 7.26914729,15.690015 7.26914729,15.4818462 C7.26914729,15.2736773 7.0990849,15.1049231 6.88930233,15.1049231 L2.26821705,15.1049231 L2.26821705,14.4307692 L15.3631008,14.4307692 L15.3631008,15.1049231 L10.7420155,15.1049231 C10.5322329,15.1049231 10.3621705,15.2736773 10.3621705,15.4818462 C10.3621705,15.690015 10.5322329,15.8587692 10.7420155,15.8587692 L15.3631008,15.8587692 L15.3631008,16.5350769 L2.26821705,16.5350769 L2.26821705,15.8587692 Z" id="Path" fill="#3F3B40"></path>
            <path d="M16.6567442,21.1615385 C16.6567442,21.3575385 16.648062,21.5578462 16.6350388,21.7581538 C16.6328682,21.7861538 16.6328682,21.8163077 16.6306977,21.8443077 C16.6155039,22.0403077 16.595969,22.2363077 16.5699225,22.4323077 C16.3476995,24.1036773 15.6959068,25.6902139 14.6772093,27.0393846 L2.95193798,27.0393846 C1.67167148,25.3427663 0.978100871,23.2810818 0.974573643,21.1615385 L0.974573643,17.2889231 L16.6567442,17.2889231 L16.6567442,21.1615385 Z" id="Path" fill="#3F3B40"></path>
            <path d="M25.1804651,26.5375385 C25.1801064,26.8050366 24.9616648,27.0217979 24.692093,27.0221538 L17.8310078,27.0221538 C17.561436,27.0217979 17.3429944,26.8050366 17.3426357,26.5375385 L17.3426357,24.5646154 L25.1804651,24.5646154 L25.1804651,26.5375385 Z" id="Path" fill="#3F3B40"></path>
            <polygon id="Path" fill="#3F3B40" points="25.1804651 23.8107692 17.3426357 23.8107692 17.3426357 23.0849231 25.1804651 23.0849231"></polygon>
            <path d="M25.2542636,22.3310769 L17.3491473,22.3310769 C17.3513178,22.3052308 17.3534884,22.2815385 17.3556589,22.2556923 C17.3708527,22.1113846 17.383876,21.9670769 17.3925581,21.8227692 C17.3947287,21.7796923 17.3990698,21.7366154 17.4012403,21.6935385 C17.4099225,21.5169231 17.4164341,21.3381538 17.4164341,21.1615385 L17.4164341,16.912 C17.4166653,16.8119636 17.3767203,16.7159584 17.3054354,16.6452218 C17.2341505,16.5744852 17.137401,16.5348475 17.0365891,16.5350769 L16.7283721,16.5350769 L15.3631008,2.83446154 L27.1990698,2.83446154 L25.2542636,22.3310769 Z" id="Path" fill="#3F3B40"></path>
            <polygon id="Path" fill="#3F3B40" points="27.2381395 2.08061538 15.324031 2.08061538 15.324031 0.960615385 27.2381395 0.960615385"></polygon>
            <path d="M12.1984496,20.7691077 C12.1984496,20.5609388 12.0283872,20.3921846 11.8186047,20.3921846 C11.263243,20.3906999 10.7162181,20.5262191 10.2267287,20.7865538 C10.002218,20.1781583 9.57019095,19.6669294 9.0055814,19.3415385 C8.88786076,19.273786 8.74258885,19.273786 8.62486822,19.3415385 C8.06041624,19.6670421 7.62861007,20.1783584 7.40437209,20.7867692 C6.91488272,20.5264345 6.36785781,20.3909153 5.81249612,20.3924 C5.60271354,20.3924 5.43265116,20.5611542 5.43265116,20.7693231 L5.43265116,20.8197231 C5.43256307,21.5754745 5.690991,22.3088763 6.16564341,22.8999077 C5.88478883,23.0798827 5.6510425,23.3234948 5.48365891,23.6106769 C5.41560016,23.7274734 5.41560016,23.8714497 5.48365891,23.9882462 C5.8128494,24.554774 6.38979647,24.9362279 7.04345534,25.0195201 C7.69711421,25.1028122 8.35246717,24.8783835 8.81522481,24.4127692 C9.27797199,24.8783631 9.93331675,25.1027588 10.5869477,25.0194225 C11.2405787,24.9360862 11.8174707,24.5545835 12.1465736,23.9880308 C12.2146386,23.8713129 12.2146386,23.7273948 12.1465736,23.6106769 C11.9792516,23.3235192 11.7455816,23.0799091 11.4648062,22.8999077 C11.9396471,22.308854 12.1982987,21.5753931 12.1984496,20.8195077 L12.1984496,20.7691077 Z M10.3927752,21.5645231 C10.7015054,21.3644924 11.0497822,21.2323046 11.4142326,21.1768308 C11.2929775,22.0114001 10.7754809,22.7375323 10.0229147,23.1290769 C10.063938,23.1075385 10.0980155,22.9783077 10.1162481,22.9393231 C10.172854,22.8199 10.2221426,22.6971948 10.263845,22.5718769 C10.3688607,22.246822 10.4122807,21.9052741 10.391907,21.5645231 L10.3927752,21.5645231 Z M8.81522481,20.1169231 C9.33103959,20.4955347 9.63532986,21.0944645 9.63532986,21.7311231 C9.63532986,22.3677816 9.33103959,22.9667114 8.81522481,23.3453231 C8.29932692,22.9667653 7.99497178,22.3678159 7.99497178,21.7311231 C7.99497178,21.0944303 8.29932692,20.4954809 8.81522481,20.1169231 L8.81522481,20.1169231 Z M7.23875969,21.5645231 C7.21773537,21.902828 7.260202,22.2420658 7.364,22.5649846 C7.40716594,22.6996675 7.46101924,22.8307444 7.52505426,22.9569846 C7.55505337,23.0122102 7.5820078,23.0690118 7.60579845,23.1271385 C6.85446183,22.7353773 6.33789715,22.0099808 6.21665116,21.1764 C6.58134416,21.2319806 6.92984075,21.3643145 7.23875969,21.5645231 Z M7.31407752,24.2822462 C6.9126267,24.2813046 6.53213027,24.1043066 6.27460465,23.7987077 C6.39651148,23.6541567 6.54775882,23.5367316 6.71848062,23.4540923 C7.10285459,23.7538504 7.54742417,23.9685135 8.02232558,24.0836615 C7.80945149,24.2133939 7.56454423,24.2821263 7.31472868,24.2822462 L7.31407752,24.2822462 Z M10.3165891,24.2822462 C10.0664338,24.2820232 9.82125031,24.2129037 9.60834109,24.0825846 C10.0832517,23.9674618 10.5278264,23.7527962 10.912186,23.4530154 C11.0829426,23.5355996 11.2342008,23.653033 11.356062,23.7976308 C11.0987511,24.1037613 10.7180962,24.2811904 10.3163721,24.2822462 L10.3165891,24.2822462 Z" id="Shape" fill="#FFFFFF"></path>
            <path d="M10.7984496,11.4283077 L10.036155,11.4283077 C9.82637246,11.4283077 9.65631008,11.5970619 9.65631008,11.8052308 C9.65631008,12.0133996 9.82637246,12.1821538 10.036155,12.1821538 L10.7984496,12.1821538 C11.0082322,12.1821538 11.1782946,12.0133996 11.1782946,11.8052308 C11.1782946,11.5970619 11.0082322,11.4283077 10.7984496,11.4283077 L10.7984496,11.4283077 Z" id="Path" fill="#FFFFFF"></path>
        </g>
        <text id="Beauty" font-family="Lato-Bold, Lato" font-size="18" font-weight="bold" fill="#FFFFFF">
            <tspan x="64.2135" y="89">Beauty</tspan>
        </text>
    </g>
</svg>