<?xml version="1.0" encoding="UTF-8"?>
<svg width="20px" height="20px" viewBox="0 0 20 20" version="1.1" xmlns="http://www.w3.org/2000/svg" xmlns:xlink="http://www.w3.org/1999/xlink">
    <!-- Generator: Sketch 54.1 (76490) - https://sketchapp.com -->
    <title>calendar (1)</title>
    <desc>Created with Sketch.</desc>
    <g id="Designs" stroke="none" stroke-width="1" fill="none" fill-rule="evenodd" opacity="0.3">
        <g id="Sign-Up" transform="translate(-1041.000000, -814.000000)" fill="#000000">
            <g id="calendar-(1)" transform="translate(1041.000000, 814.000000)">
                <path d="M7.23238494,11.0147648 C7.23238494,10.7646626 7.02485356,10.562045 6.76878661,10.562045 L5.15100418,10.562045 C4.89523013,10.562045 4.6876569,10.7646626 4.6876569,11.0147648 L4.6876569,12.5959509 C4.6876569,12.8463804 4.89523013,13.0490798 5.15100418,13.0490798 L6.76878661,13.0490798 C7.02485356,13.0490798 7.23238494,12.8463804 7.23238494,12.5959509 L7.23238494,11.0147648 L7.23238494,11.0147648 Z" id="Path"></path>
                <path d="M11.2754393,11.0147648 C11.2754393,10.7646626 11.0678661,10.562045 10.8123013,10.562045 L9.19430962,10.562045 C8.93853556,10.562045 8.73096234,10.7646626 8.73096234,11.0147648 L8.73096234,12.5959509 C8.73096234,12.8463804 8.93853556,13.0490798 9.19430962,13.0490798 L10.8123013,13.0490798 C11.0678661,13.0490798 11.2754393,12.8463804 11.2754393,12.5959509 L11.2754393,11.0147648 Z" id="Path"></path>
                <path d="M15.3187029,11.0147648 C15.3187029,10.7646626 15.1111297,10.562045 14.8553556,10.562045 L13.2375732,10.562045 C12.9815063,10.562045 12.7739749,10.7646626 12.7739749,11.0147648 L12.7739749,12.5959509 C12.7739749,12.8463804 12.9815063,13.0490798 13.2375732,13.0490798 L14.8553556,13.0490798 C15.1111297,13.0490798 15.3187029,12.8463804 15.3187029,12.5959509 L15.3187029,11.0147648 Z" id="Path"></path>
                <path d="M7.23238494,14.9672802 C7.23238494,14.7167689 7.02485356,14.5143149 6.76878661,14.5143149 L5.15100418,14.5143149 C4.89523013,14.5143149 4.6876569,14.7167689 4.6876569,14.9672802 L4.6876569,16.54818 C4.6876569,16.7984458 4.89523013,17.0011043 5.15100418,17.0011043 L6.76878661,17.0011043 C7.02485356,17.0011043 7.23238494,16.7984049 7.23238494,16.54818 L7.23238494,14.9672802 L7.23238494,14.9672802 Z" id="Path"></path>
                <path d="M11.2754393,14.9672802 C11.2754393,14.7167689 11.0678661,14.5143149 10.8123013,14.5143149 L9.19430962,14.5143149 C8.93853556,14.5143149 8.73096234,14.7167689 8.73096234,14.9672802 L8.73096234,16.54818 C8.73096234,16.7984458 8.93853556,17.0011043 9.19430962,17.0011043 L10.8123013,17.0011043 C11.0678661,17.0011043 11.2754393,16.7984049 11.2754393,16.54818 L11.2754393,14.9672802 Z" id="Path"></path>
                <path d="M15.3187029,14.9672802 C15.3187029,14.7167689 15.1111297,14.5143149 14.8555649,14.5143149 L13.2375732,14.5143149 C12.9815063,14.5143149 12.7739749,14.7167689 12.7739749,14.9672802 L12.7739749,16.54818 C12.7739749,16.7984458 12.9815063,17.0011043 13.2375732,17.0011043 L14.8555649,17.0011043 C15.1111297,17.0011043 15.3187029,16.7984049 15.3187029,16.54818 L15.3187029,14.9672802 L15.3187029,14.9672802 Z" id="Path"></path>
                <path d="M18.2114644,2.22306748 L18.2114644,4.63820041 C18.2114644,5.72981595 17.305523,6.60948875 16.188954,6.60948875 L14.9130962,6.60948875 C13.7964435,6.60948875 12.8784937,5.72981595 12.8784937,4.63820041 L12.8784937,2.21439673 L7.12786611,2.21439673 L7.12786611,4.63820041 C7.12786611,5.72981595 6.20995816,6.60948875 5.0934728,6.60948875 L3.81736402,6.60948875 C2.70083682,6.60948875 1.79493724,5.72981595 1.79493724,4.63820041 L1.79493724,2.22306748 C0.819079498,2.25182004 0.0171966527,3.04114519 0.0171966527,4.01132924 L0.0171966527,18.1651534 C0.0171966527,19.1535787 0.836778243,19.9653579 1.84794979,19.9653579 L18.15841,19.9653579 C19.1680753,19.9653579 19.9891632,19.1519018 19.9891632,18.1651534 L19.9891632,4.01132924 C19.9891632,3.04114519 19.1873222,2.25182004 18.2114644,2.22306748 Z M17.6188703,17.2837628 C17.6188703,17.7109202 17.2645607,18.0574642 16.8274059,18.0574642 L3.14410042,18.0574642 C2.70694561,18.0574642 2.35263598,17.7109202 2.35263598,17.2837628 L2.35263598,9.97280164 C2.35263598,9.54548057 2.70690377,9.19893661 3.14410042,9.19893661 L16.827364,9.19893661 C17.2645188,9.19893661 17.6188285,9.54548057 17.6188285,9.97280164 L17.6188703,17.2837628 L17.6188703,17.2837628 Z" id="Shape" fill-rule="nonzero"></path>
                <path d="M3.81288703,5.31472393 L5.0748954,5.31472393 C5.45794979,5.31472393 5.76853556,5.01157464 5.76853556,4.63713701 L5.76853556,0.677832311 C5.76853556,0.303353783 5.45794979,0 5.0748954,0 L3.81288703,0 C3.42979079,0 3.11924686,0.303353783 3.11924686,0.677832311 L3.11924686,4.63713701 C3.11924686,5.01157464 3.42979079,5.31472393 3.81288703,5.31472393 Z" id="Path"></path>
                <path d="M14.8968619,5.31472393 L16.1588703,5.31472393 C16.5416736,5.31472393 16.8522594,5.01157464 16.8522594,4.63713701 L16.8522594,0.677832311 C16.8523013,0.303353783 16.5417155,0 16.1588703,0 L14.8968619,0 C14.5138494,0 14.2032636,0.303353783 14.2032636,0.677832311 L14.2032636,4.63713701 C14.2032636,5.01157464 14.5138494,5.31472393 14.8968619,5.31472393 Z" id="Path"></path>
            </g>
        </g>
    </g>
</svg>