<?xml version="1.0" encoding="UTF-8"?>
<svg width="185px" height="104px" viewBox="0 0 185 104" version="1.1" xmlns="http://www.w3.org/2000/svg" xmlns:xlink="http://www.w3.org/1999/xlink">
    <!-- Generator: Sketch 54.1 (76490) - https://sketchapp.com -->
    <title>Car Rental</title>
    <desc>Created with Sketch.</desc>
    <g id="panel-header" stroke="none" stroke-width="1" fill="none" fill-rule="evenodd">
        <g id="Group-47-Copy-7" transform="translate(0.000000, 0.000000)">
            <g id="Group-46">
                <g id="Group-10">
                    <rect id="Rectangle" fill="#2E3135" x="0" y="0" width="185" height="104"></rect>
                    <path d="M0,82.0210526 C16.3333333,67.1157895 43,58.5263158 80,56.2526316 C117,53.9789474 152,45.8947368 185,32 L185,104 L0,104 L0,82.0210526 Z" id="Path-2-Copy" fill="#3A3D41"></path>
                </g>
            </g>
            <g id="Group-5" transform="translate(49.000000, 10.000000)" fill="#FFFFFF">
                <g id="Group-21" transform="translate(16.000000, 0.000000)">
                    <circle id="Oval" cx="28" cy="28" r="28"></circle>
                </g>
                <text id="Car-Rental" font-family="Lato-Bold, Lato" font-size="18" font-weight="bold">
                    <tspan x="0.385" y="79">Car Rental</tspan>
                </text>
            </g>
        </g>
        <g id="Group-6" transform="translate(75.000000, 23.000000)" fill="#2E3135" fill-rule="nonzero">
            <g id="rent">
                <path d="M7.60935937,7.58527734 C7.57202344,7.54477734 7.53465234,7.5245625 7.49731641,7.5245625 L7.12996875,7.5245625 L7.12996875,7.99773047 L7.51285547,7.99773047 C7.55022656,7.99773047 7.58496094,7.97698828 7.61712891,7.93546875 C7.64929687,7.89398437 7.66539844,7.83587109 7.66539844,7.76116406 C7.66539844,7.68438281 7.64673047,7.62574219 7.60935937,7.58527734 Z" id="Path"></path>
                <path d="M18,2.19540234 L18,2.19540234 C18,1.90415843 17.7639002,1.66805859 17.4726562,1.66805859 L2.78753906,1.66805859 L2.78753906,0.52734375 C2.78753906,0.236099839 2.55143922,-5.35006385e-17 2.26019531,0 L2.26019531,0 C1.9689514,5.35006385e-17 1.73285156,0.236099839 1.73285156,0.52734375 L1.73285156,1.66805859 L0.52734375,1.66805859 C0.236099839,1.66805859 -3.56670923e-17,1.90415843 0,2.19540234 L0,2.19540234 C3.56670923e-17,2.48664625 0.236099839,2.72274609 0.52734375,2.72274609 L1.73285156,2.72274609 L1.73285156,29.4726562 C1.73285156,29.7639002 1.9689514,30 2.26019531,30 L2.26019531,30 C2.55143922,30 2.78753906,29.7639002 2.78753906,29.4726562 L2.78753906,2.72274609 L5.91120703,2.72274609 L5.91120703,4.26403125 L5.51437891,4.26403125 C4.96209416,4.26403125 4.51437891,4.7117465 4.51437891,5.26403125 L4.51437891,11.0945586 C4.51437891,11.6468433 4.96209416,12.0945586 5.51437891,12.0945586 L15.449293,12.0945586 C16.0015777,12.0945586 16.449293,11.6468433 16.449293,11.0945586 L16.449293,5.26403125 C16.449293,4.7117465 16.0015777,4.26403125 15.449293,4.26403125 L15.0676875,4.26403125 L15.0676875,2.72274609 L17.4726562,2.72274609 C17.7639002,2.72274609 18,2.48664625 18,2.19540234 Z M6.96589453,2.72274609 L14.0130352,2.72274609 L14.0130352,4.26403125 L6.96589453,4.26403125 L6.96589453,2.72274609 Z M7.74632812,9.20552344 L7.74632812,9.20552344 L7.35721875,8.5269375 L7.12996875,8.5269375 L7.12996875,9.20555859 L6.52296094,9.20555859 L6.52296094,6.99539062 L7.53778125,6.99539062 C7.64567578,6.99539062 7.74527344,7.01771484 7.83664453,7.06229297 C7.92794531,7.10697656 8.00630859,7.16501953 8.07166406,7.23663281 C8.13701953,7.30821094 8.18838281,7.39023047 8.22575391,7.48255078 C8.263125,7.57490625 8.28179297,7.66775391 8.28179297,7.76116406 C8.28179297,7.88987109 8.25377344,8.00971875 8.19773438,8.12070703 C8.14169531,8.23173047 8.06385938,8.32253906 7.96426172,8.3930625 L8.43120703,9.20552344 L7.74632812,9.20552344 Z M10.1992852,9.20555859 L8.62414453,9.20555859 L8.62414453,6.99539062 L10.1712656,6.99539062 L10.1712656,7.52459766 L9.23115234,7.52459766 L9.23115234,7.83590625 L10.0342969,7.83590625 L10.0342969,8.32774219 L9.23115234,8.32774219 L9.23115234,8.67638672 L10.1992852,8.67638672 L10.1992852,9.20555859 L10.1992852,9.20555859 Z M12.4498828,9.20555859 L11.9673633,9.20555859 L11.0895117,8.11916016 L11.0895117,9.20555859 L10.4825039,9.20555859 L10.4825039,6.99539062 L10.9556719,6.99539062 L11.8428398,8.11916016 L11.8428398,6.99539062 L12.4498828,6.99539062 L12.4498828,9.20555859 L12.4498828,9.20555859 Z M14.5511016,7.5245625 L13.9160742,7.5245625 L13.9160742,9.20555859 L13.3090313,9.20555859 L13.3090313,7.5245625 L12.670875,7.5245625 L12.670875,6.99539062 L14.5511016,6.99539062 L14.5511016,7.5245625 Z" id="Shape"></path>
            </g>
            <g id="parking" transform="translate(4.000000, 14.000000)">
                <path d="M7.592,9.151 C5.822,9.151 4.389,10.585 4.389,12.354 C4.389,14.125 5.823,15.558 7.592,15.558 C9.36,15.558 10.795,14.124 10.795,12.354 C10.795,10.585 9.36,9.151 7.592,9.151 Z M7.592,13.321 C7.06,13.321 6.624,12.887 6.624,12.354 C6.624,11.821 7.06,11.387 7.592,11.387 C8.123,11.387 8.558,11.821 8.558,12.354 C8.558,12.887 8.123,13.321 7.592,13.321 Z" id="Shape"></path>
                <path d="M30.914,9.729 L30.389,5.467 C30.287,4.649 29.572,4.049 28.747,4.094 L27.6,4.157 L24.035,0.946 C23.692,0.637 23.248,0.467 22.786,0.467 L15.545,0.466 C13.92,0.466 12.344,1.021 11.077,2.039 L7.038,5.286 L1.605,6.642 C0.907,6.817 0.417,7.444 0.417,8.163 L0.417,9.728 C0.187,9.729 0,9.916 0,10.146 L0,12.217 C0,12.512 0.239,12.751 0.534,12.751 L3.601,12.751 C3.588,12.618 3.561,12.491 3.561,12.355 C3.561,10.129 5.365,8.326 7.591,8.326 C9.817,8.326 11.62,10.13 11.62,12.355 C11.62,12.492 11.592,12.619 11.579,12.751 L20.073,12.751 C20.06,12.618 20.033,12.491 20.033,12.355 C20.033,10.129 21.837,8.326 24.062,8.326 C26.289,8.326 28.091,10.13 28.091,12.355 C28.091,12.492 28.064,12.619 28.05,12.751 L30.911,12.751 C31.206,12.751 31.445,12.512 31.445,12.217 L31.445,10.264 C31.449,9.969 31.209,9.729 30.914,9.729 Z M20.167,4.491 L10.065,5.003 L11.999,3.448 C13.05,2.602 14.356,2.142 15.705,2.142 L20.167,2.142 L20.167,4.491 Z M21.846,4.405 L21.846,2.143 L22.503,2.143 C22.731,2.143 22.95,2.227 23.119,2.38 L25.181,4.236 L21.846,4.405 Z" id="Shape"></path>
                <path d="M24.064,9.151 C22.294,9.151 20.861,10.585 20.861,12.354 C20.861,14.125 22.296,15.558 24.064,15.558 C25.832,15.558 27.267,14.124 27.267,12.354 C27.268,10.585 25.832,9.151 24.064,9.151 Z M24.064,13.321 C23.532,13.321 23.097,12.887 23.097,12.354 C23.097,11.821 23.532,11.387 24.064,11.387 C24.595,11.387 25.031,11.821 25.031,12.354 C25.031,12.887 24.596,13.321 24.064,13.321 Z" id="Shape"></path>
            </g>
        </g>
    </g>
</svg>