<?xml version="1.0" encoding="UTF-8"?>
<svg width="185px" height="104px" viewBox="0 0 185 104" version="1.1" xmlns="http://www.w3.org/2000/svg" xmlns:xlink="http://www.w3.org/1999/xlink">
    <!-- Generator: Sketch 54.1 (76490) - https://sketchapp.com -->
    <title>E-commerce</title>
    <desc>Created with Sketch.</desc>
    <g id="panel-header" stroke="none" stroke-width="1" fill="none" fill-rule="evenodd">
        <g id="Group-47-Copy">
            <g id="Group-46">
                <g id="Group-10">
                    <rect id="Rectangle" fill="#2CA6B1" x="0" y="0" width="185" height="104"></rect>
                    <path d="M0,82.0210526 C16.3333333,67.1157895 43,58.5263158 80,56.2526316 C117,53.9789474 152,45.8947368 185,32 L185,104 L0,104 L0,82.0210526 Z" id="Path-2-Copy" fill="#2FAEB9"></path>
                </g>
            </g>
            <g id="Group-5" transform="translate(41.000000, 10.000000)" fill="#FFFFFF">
                <g id="Group-21" transform="translate(24.000000, 0.000000)">
                    <circle id="Oval" cx="28" cy="28" r="28"></circle>
                </g>
                <text id="E-commerce" font-family="Lato-Bold, Lato" font-size="18" font-weight="bold">
                    <tspan x="0" y="79">E-commerce</tspan>
                </text>
            </g>
        </g>
        <g id="Group-4" transform="translate(78.000000, 24.000000)">
            <g id="Group-3" transform="translate(4.379605, 0.000000)">
                <ellipse id="Combined-Shape" fill="#2CA6B1" cx="11.3869724" cy="11.3326115" rx="11.3869724" ry="11.3326115"></ellipse>
                <ellipse id="Oval" stroke="#FFFFFF" stroke-width="1.24923817" cx="11.3869724" cy="11.3326115" rx="5.05288611" ry="11.9572306"></ellipse>
                <ellipse id="Oval-Copy" stroke="#FFFFFF" stroke-width="1.24923817" transform="translate(11.386972, 11.332612) rotate(-270.000000) translate(-11.386972, -11.332612) " cx="11.3869724" cy="11.3326115" rx="5.03174578" ry="12.0115914"></ellipse>
            </g>
            <path d="M4.37960475,15.6027722 L16.2944487,15.6027722 C16.7720961,15.6027722 17.1593059,15.989982 17.1593059,16.4676294 C17.1593059,16.5525121 17.1468098,16.6369325 17.1222196,16.7181753 L14.5306326,25.2804411 L5.40628846,19.9682794 L4.37960475,15.6027722 Z" id="Path-7" fill="#FFFFFF"></path>
            <g id="ic_cart" transform="translate(0.000000, 12.204351)">
                <g id="Group" transform="translate(0.277375, 0.544837)">
                    <g id="Group-2" transform="translate(0.000000, 0.583754)">
                        <ellipse id="Oval-Copy" fill="#2CA6B1" cx="12.3571282" cy="13.0760902" rx="1.89612941" ry="1.86801289"></ellipse>
                        <ellipse id="Oval-Copy-2" fill="#2CA6B1" cx="5.70012896" cy="13.0760902" rx="1.89612941" ry="1.86801289"></ellipse>
                        <polyline id="Rectangle-2" stroke="#2CA6B1" stroke-width="0.864857194" stroke-linecap="round" stroke-linejoin="round" points="5.70012896 3.36631489 15.5329982 3.36631489 13.7260229 9.34006443 4.11036944 9.34006443 2.39111164 0.935894935 0 0"></polyline>
                    </g>
                </g>
                <path d="M5.82609325,8.57181981 L10.0648578,8.57181981" id="Line" stroke="#2CA6B1" stroke-width="0.864857194" stroke-linecap="round" stroke-linejoin="round" fill-rule="nonzero"></path>
                <path d="M5.82609325,6.82834112 L7.83652002,6.82834112" id="Line-Copy" stroke="#2CA6B1" stroke-width="0.864857194" stroke-linecap="round" stroke-linejoin="round" fill-rule="nonzero"></path>
            </g>
        </g>
    </g>
</svg>