<?xml version="1.0" encoding="UTF-8"?>
<svg width="185px" height="104px" viewBox="0 0 185 104" version="1.1" xmlns="http://www.w3.org/2000/svg" xmlns:xlink="http://www.w3.org/1999/xlink">
    <!-- Generator: Sketch 54.1 (76490) - https://sketchapp.com -->
    <title>header</title>
    <desc>Created with Sketch.</desc>
    <g id="Page-1" stroke="none" stroke-width="1" fill="none" fill-rule="evenodd">
        <g id="Group-10-Copy">
            <rect id="Rectangle" fill="#2CA6B1" x="0" y="0" width="185" height="104"></rect>
            <path d="M0,82.0210526 C16.3333333,67.1157895 43,58.5263158 80,56.2526316 C117,53.9789474 152,45.8947368 185,32 L185,104 L0,104 L0,82.0210526 Z" id="Path-2-Copy" fill="#2FAEB9"></path>
            <g id="Group-13" transform="translate(57.000000, 17.000000)" fill="#FFFFFF" stroke="#2FAEB9">
                <circle id="Oval" cx="36" cy="36" r="36"></circle>
            </g>
        </g>
        <g id="Group-4-Copy" transform="translate(75.000000, 37.000000)">
            <g id="Group-3" transform="translate(5.318091, 0.000000)">
                <ellipse id="Combined-Shape" fill="#2CA6B1" cx="13.8270379" cy="13.9768875" rx="13.8270379" ry="13.9768875"></ellipse>
                <ellipse id="Oval" stroke="#FFFFFF" stroke-width="1.54072708" cx="13.8270379" cy="13.9768875" rx="6.14754493" ry="14.7472511"></ellipse>
                <ellipse id="Oval-Copy" stroke="#FFFFFF" stroke-width="1.54072708" transform="translate(13.827038, 13.976888) rotate(-270.000000) translate(-13.827038, -13.976888) " cx="13.8270379" cy="13.9768875" rx="6.2058198" ry="14.5974014"></ellipse>
            </g>
            <path d="M5.31809148,19.2434191 L19.770339,19.2434191 C20.3594375,19.2434191 20.8369962,19.7209778 20.8369962,20.3100763 C20.8369962,20.4132323 20.8220323,20.5158428 20.792572,20.6147026 L17.6443395,31.1792106 L6.56477885,24.6275446 L5.31809148,19.2434191 Z" id="Path-7" fill="#FFFFFF"></path>
            <g id="ic_cart" transform="translate(0.000000, 15.052033)">
                <g id="Group" transform="translate(0.336812, 0.671966)">
                    <g id="Group-2" transform="translate(0.000000, 0.719963)">
                        <ellipse id="Oval-Copy" fill="#2CA6B1" cx="15.0050842" cy="16.1271779" rx="2.30244285" ry="2.30388256"></ellipse>
                        <ellipse id="Oval-Copy-2" fill="#2CA6B1" cx="6.92158517" cy="16.1271779" rx="2.30244285" ry="2.30388256"></ellipse>
                        <polyline id="Rectangle-2" stroke="#2CA6B1" stroke-width="1.06665721" stroke-linecap="round" stroke-linejoin="round" points="6.92158517 4.15178836 18.8614978 4.15178836 16.6673135 11.5194128 4.99116289 11.5194128 2.90349271 1.15427042 0 0"></polyline>
                    </g>
                </g>
                <path d="M7.07454181,10.5719111 L12.221613,10.5719111" id="Line" stroke="#2CA6B1" stroke-width="1.06665721" stroke-linecap="round" stroke-linejoin="round" fill-rule="nonzero"></path>
                <path d="M7.07454181,8.42162071 L9.51577431,8.42162071" id="Line-Copy" stroke="#2CA6B1" stroke-width="1.06665721" stroke-linecap="round" stroke-linejoin="round" fill-rule="nonzero"></path>
            </g>
        </g>
    </g>
</svg>