<?xml version="1.0" encoding="UTF-8"?>
<svg width="185px" height="104px" viewBox="0 0 185 104" version="1.1" xmlns="http://www.w3.org/2000/svg" xmlns:xlink="http://www.w3.org/1999/xlink">
    <!-- Generator: Sketch 54.1 (76490) - https://sketchapp.com -->
    <title>Home Service</title>
    <desc>Created with Sketch.</desc>
    <g id="panel-header" stroke="none" stroke-width="1" fill="none" fill-rule="evenodd">
        <g id="Group-47-Copy-8" transform="translate(0.000000, 0.000000)">
            <g id="Group-46">
                <g id="Group-10">
                    <rect id="Rectangle" fill="#0E3D51" x="0" y="0" width="185" height="104"></rect>
                    <path d="M0,82.0210526 C16.3333333,67.1157895 43,58.5263158 80,56.2526316 C117,53.9789474 152,45.8947368 185,32 L185,104 L0,104 L0,82.0210526 Z" id="Path-2-Copy" fill="#0F455C"></path>
                </g>
            </g>
            <g id="Group-5" transform="translate(36.000000, 10.000000)" fill="#FFFFFF">
                <g id="Group-21" transform="translate(29.000000, 0.000000)">
                    <circle id="Oval" cx="28" cy="28" r="28"></circle>
                </g>
                <text id="Home-Service" font-family="Lato-Bold, Lato" font-size="18" font-weight="bold">
                    <tspan x="0.2945" y="79">Home Service</tspan>
                </text>
            </g>
        </g>
        <g id="floor-mop" transform="translate(81.000000, 22.000000)">
            <path d="M9.94652308,31.21875 L9.94652308,27.194125 C9.94652308,27.02225 10.0849846,26.881625 10.2542154,26.881625 L12.6858462,26.881625 L13.0584615,20.9025 L1.9624,20.9025 L2.59870769,31.11425 C2.61298462,31.343625 2.80966154,31.5311875 3.03606154,31.5311875 L10.2542154,31.5311875 C10.0849846,31.53125 9.94652308,31.390625 9.94652308,31.21875 Z" id="Path" fill="#0E3D51" fill-rule="nonzero"></path>
            <g id="Group" transform="translate(8.369231, 10.437500)" fill="#D7F7FF" fill-rule="nonzero">
                <ellipse id="Oval" cx="3.82461538" cy="4.368125" rx="1" ry="1"></ellipse>
                <ellipse id="Oval" cx="1.04061538" cy="1.023125" rx="1.00166154" ry="1.0173125"></ellipse>
            </g>
            <path d="M9.94652308,31.21875 L9.94652308,30.110875 L2.53618462,30.110875 L2.59870769,31.11425 C2.61298462,31.343625 2.80978462,31.5311875 3.03606154,31.5311875 L10.2542154,31.5311875 C10.0849846,31.53125 9.94652308,31.390625 9.94652308,31.21875 Z" id="Path" fill="#0E3D51" fill-rule="nonzero"></path>
            <path d="M3.93932308,31.1143125 L3.30301538,20.9025625 L1.9624,20.9025625 L2.59870769,31.1143125 C2.61298462,31.3436875 2.80966154,31.53125 3.03606154,31.53125 L4.37667692,31.53125 C4.15021538,31.53125 3.9536,31.3436875 3.93932308,31.1143125 Z" id="Path" fill="#0E3D51" fill-rule="nonzero" opacity="0.1"></path>
            <path d="M14.5329231,20.2775 C14.5329231,20.62125 14.256,20.9025 13.9175385,20.9025 L1.10326154,20.9025 C0.7648,20.9025 0.487876923,20.62125 0.487876923,20.2775 L0.487876923,20.14475 C0.487876923,19.801 0.7648,19.51975 1.10326154,19.51975 L13.9175385,19.51975 C14.256,19.51975 14.5329231,19.801 14.5329231,20.14475 L14.5329231,20.2775 Z" id="Path" fill="#0E3D51" fill-rule="nonzero"></path>
            <rect id="Rectangle" fill="#0E3D51" fill-rule="nonzero" x="15.7753846" y="3.56875" width="1.90744615" height="19.05125"></rect>
            <g id="Group" transform="translate(8.907692, 22.437500)">
                <path d="M4.09230769,4.0625 L1.59230769,4.0625 C1.04002294,4.0625 0.592307692,4.51021525 0.592307692,5.0625 L0.592307692,8.5625 C0.592307692,9.11478475 1.04002294,9.5625 1.59230769,9.5625 L3.49727487,9.5625 C4.04955962,9.5625 4.49727487,9.11478475 4.49727487,8.5625 C4.49727487,8.53227486 4.49590453,8.50206526 4.49316808,8.47196425 L4.09230769,4.0625 Z" id="Path-2" fill="#FFFFFF"></path>
                <g id="Group-8" transform="translate(1.038831, 0.182000)" fill-rule="nonzero">
                    <path d="M13.2579077,4.262125 L8.40190769,4.262125 C8.23267692,4.262125 8.09421538,4.1215 8.09421538,3.949625 L8.09421538,0.3125 C8.09421538,0.140625 7.95575385,-1.77635684e-15 7.78652308,-1.77635684e-15 L5.77907692,-1.77635684e-15 C5.60984615,-1.77635684e-15 5.47138462,0.140625 5.47138462,0.3125 L5.47138462,3.949625 C5.47138462,4.1215 5.33292308,4.262125 5.16369231,4.262125 L0.307692308,4.262125 C0.138461538,4.262125 7.99360578e-15,4.40275 7.99360578e-15,4.574625 L7.99360578e-15,5.788 C7.99360578e-15,5.616125 0.138461538,5.4755 0.307692308,5.4755 L13.2579077,5.4755 C13.4271385,5.4755 13.5656,5.616125 13.5656,5.788 L13.5656,4.574625 C13.5656,4.40275 13.4271385,4.262125 13.2579077,4.262125 Z" id="Path" fill="#0E3D51"></path>
                    <path d="M13.5656,8.59925 C13.5656,8.771125 13.4271385,8.91175 13.2579077,8.91175 L0.307692308,8.91175 C0.138461538,8.91175 7.10542736e-15,8.771125 7.10542736e-15,8.59925 L7.10542736e-15,5.7880625 C7.10542736e-15,5.6161875 0.138461538,5.4755625 0.307692308,5.4755625 L13.2579077,5.4755625 C13.4271385,5.4755625 13.5656,5.6161875 13.5656,5.7880625 L13.5656,8.59925 Z" id="Path" fill="#0E3D51"></path>
                    <polygon id="Path" fill="#FFFFFF" points="13.1040615 8.443 0.461538462 8.443 0.461538462 5.9443125 13.1040615 5.9443125"></polygon>
                </g>
            </g>
            <path d="M10.0219692,25.610875 C10.0219692,25.954625 9.74504615,26.235875 9.40658462,26.235875 L5.61415385,26.235875 C5.27569231,26.235875 4.99876923,25.954625 4.99876923,25.610875 L4.99876923,25.3755625 C4.99876923,25.0318125 5.27569231,24.7505625 5.61415385,24.7505625 L9.40658462,24.7505625 C9.74504615,24.7505625 10.0219692,25.0318125 10.0219692,25.3755625 L10.0219692,25.610875 Z" id="Path" fill="#FFFFFF" fill-rule="nonzero"></path>
            <path d="M12.1939692,16.17875 C12.9393846,16.17875 13.5459077,15.56275 13.5459077,14.805625 C13.5459077,14.0485 12.9394462,13.4325625 12.1939692,13.4325625 C11.4485538,13.4325625 10.8420308,14.0485 10.8420308,14.805625 C10.8420923,15.56275 11.4485538,16.17875 12.1939692,16.17875 Z M12.1939692,14.37 C12.4304615,14.37 12.6228308,14.565375 12.6228308,14.8055625 C12.6228308,15.04575 12.4304615,15.2411875 12.1939692,15.2411875 C11.9574769,15.2411875 11.7651077,15.04575 11.7651077,14.8055625 C11.7651692,14.5654375 11.9575385,14.37 12.1939692,14.37 Z" id="Shape" fill="#0E3D51" fill-rule="nonzero"></path>
            <path d="M9.4096,12.947125 C10.2164308,12.947125 10.8728,12.2804375 10.8728,11.4609375 C10.8728,10.6415 10.2164308,9.9748125 9.4096,9.9748125 C8.60276923,9.9748125 7.9464,10.6415 7.9464,11.4609375 C7.9464,12.2804375 8.60276923,12.947125 9.4096,12.947125 Z M9.4096,10.9123125 C9.70744615,10.9123125 9.94972308,11.1584375 9.94972308,11.4609375 C9.94972308,11.7635 9.70738462,12.009625 9.4096,12.009625 C9.11175385,12.009625 8.86947692,11.7635 8.86947692,11.4609375 C8.86947692,11.1584375 9.11175385,10.9123125 9.4096,10.9123125 Z" id="Shape" fill="#0E3D51" fill-rule="nonzero"></path>
            <path d="M16.2371077,1.1145625 C16.2371077,1.018625 16.3169231,0.9375 16.4113846,0.9375 L17.0472,0.9375 C17.1416615,0.9375 17.2214769,1.0185625 17.2214769,1.1145625 L17.2214769,5.876625 L16.2371077,5.876625 L16.2371077,1.1145625 Z" id="Path" fill="#0E3D51" fill-rule="nonzero"></path>
            <path d="M10.2542154,26.412875 C10.2094154,26.412875 10.1658462,26.417625 10.1231385,26.4250625 C10.2329846,26.32525 10.3224,26.2033125 10.3847385,26.06575 L12.2742154,26.06575 L12.2525538,26.412875 L10.2542154,26.412875 L10.2542154,26.412875 Z" id="Path" fill="#0E3D51" fill-rule="nonzero"></path>
            <path d="M9.48498462,27.194125 L9.48498462,28.4075 L9.48498462,29.642125 L2.96941538,29.642125 L2.74658462,26.06575 L4.63606154,26.06575 C4.80652308,26.442125 5.18030769,26.704625 5.61421538,26.704625 L9.40664615,26.704625 C9.50486154,26.704625 9.59956923,26.6900625 9.68996923,26.6649375 C9.56313846,26.8043125 9.48498462,26.989875 9.48498462,27.194125 Z" id="Path" fill="#0E3D51" fill-rule="nonzero"></path>
            <path d="M13.2626462,25.0475625 L13.4917538,21.3713125 L13.6934154,21.3713125 L13.6934154,24.3470625 C13.6934154,24.654375 13.5172923,24.9200625 13.2626462,25.0475625 Z" id="Path" fill="#0E3D51" fill-rule="nonzero"></path>
            <path d="M4.41556923,17.9589375 C4.59963077,17.94375 4.75710769,17.818625 4.81581538,17.6408125 C4.94350769,17.2543125 5.29913846,16.994625 5.70061538,16.994625 C5.83495385,16.994625 5.96498462,17.02325 6.08701538,17.07975 C6.20966154,17.1365625 6.35076923,17.1359375 6.47316923,17.0781875 C6.59544615,17.0203125 6.68670769,16.9110625 6.72295385,16.7790625 C6.8304,16.3874375 7.18516923,16.1139375 7.58572308,16.1139375 C7.93255385,16.1139375 8.25138462,16.3205625 8.39815385,16.640375 C8.48775385,16.83575 8.69673846,16.9439375 8.90553846,16.9023125 C8.98043077,16.887375 9.05643077,16.8798125 9.13150769,16.8798125 C9.76510769,16.8798125 10.2851077,17.4034375 10.2907692,18.047125 C10.2922462,18.2181875 10.3854154,18.3748125 10.5337231,18.4558125 C10.6820923,18.5368125 10.8619692,18.529375 11.0033846,18.4363125 C11.1422154,18.344875 11.3032,18.2965625 11.4689846,18.2965625 C11.9030154,18.2965625 12.2619077,18.625875 12.3184,19.0511875 L2.8736,19.0511875 C3.15286154,18.4514375 3.73101538,18.0153125 4.41556923,17.9589375 Z" id="Path" fill="#0E3D51" fill-rule="nonzero"></path>
            <path d="M0.949415385,20.1448125 C0.949415385,20.060125 1.01987692,19.9885625 1.10326154,19.9885625 L13.9175385,19.9885625 C14.0009231,19.9885625 14.0713846,20.060125 14.0713846,20.1448125 L14.0713846,20.2775625 C14.0713846,20.36225 14.0009231,20.4338125 13.9175385,20.4338125 L11.6923077,20.4338125 C11.4373538,20.4338125 11.2307692,20.6436875 11.2307692,20.9025625 C11.2307692,21.1614375 11.4373538,21.3713125 11.6923077,21.3713125 L12.5667692,21.3713125 L12.3326154,25.1283125 L10.4546462,25.1283125 C10.3438769,24.644125 9.91655385,24.281875 9.40658462,24.281875 L5.61415385,24.281875 C5.10418462,24.281875 4.6768,24.644125 4.56609231,25.1283125 L2.68812308,25.1283125 L2.45396923,21.3713125 L9.53833846,21.3713125 C9.79329231,21.3713125 9.99987692,21.1614375 9.99987692,20.9025625 C9.99987692,20.6436875 9.79329231,20.4338125 9.53833846,20.4338125 L1.10326154,20.4338125 C1.01987692,20.4338125 0.949415385,20.36225 0.949415385,20.2775625 L0.949415385,20.1448125 Z" id="Path" fill="#0E3D51" fill-rule="nonzero"></path>
            <path d="M1.32738462,24.3470625 L1.32738462,21.37125 L1.52904615,21.37125 L1.75815385,25.0475 C1.50350769,24.9200625 1.32738462,24.654375 1.32738462,24.3470625 Z" id="Path" fill="#0E3D51" fill-rule="nonzero"></path>
            <polygon id="Path" fill="#0E3D51" fill-rule="nonzero" points="3.02781538 30.579625 9.48498462 30.579625 9.48498462 31.0625 3.05790769 31.0625"></polygon>
            <path d="M8.54276923,17.1295625 C8.02750769,17.1295625 7.54449231,17.4096875 7.28227692,17.8606875 C7.15267692,18.083625 7.22547692,18.371 7.44504615,18.5026875 C7.51864615,18.546875 7.59950769,18.567875 7.67932308,18.567875 C7.83716923,18.567875 7.99101538,18.4855625 8.07716923,18.3374375 C8.17563077,18.168125 8.34972308,18.0670625 8.54276923,18.0670625 C8.73593846,18.0670625 8.91009231,18.1681875 9.00855385,18.3375 C9.13827692,18.560375 9.42116923,18.634375 9.64073846,18.5025625 C9.86012308,18.370875 9.93292308,18.0834375 9.80326154,17.8605625 C9.54086154,17.4096875 9.05790769,17.129625 8.54276923,17.1295625 Z" id="Path" fill="#FFFFFF" fill-rule="nonzero"></path>
            <path d="M5.78763077,17.5286875 C5.37175385,17.5286875 4.98184615,17.754875 4.76996923,18.118875 C4.64030769,18.34175 4.71304615,18.6291875 4.93249231,18.760875 C5.00621538,18.805125 5.08707692,18.826125 5.16695385,18.826125 C5.32473846,18.826125 5.47858462,18.7438125 5.56473846,18.5958125 C5.612,18.514625 5.69532308,18.466125 5.78763077,18.466125 C5.88012308,18.466125 5.96350769,18.514625 6.01083077,18.5958125 C6.14055385,18.81875 6.42375385,18.8925625 6.64295385,18.7608125 C6.86233846,18.6290625 6.93513846,18.341625 6.80541538,18.11875 C6.59353846,17.754875 6.20363077,17.52875 5.78763077,17.5286875 Z" id="Path" fill="#FFFFFF" fill-rule="nonzero"></path>
        </g>
    </g>
</svg>