<?xml version="1.0" encoding="UTF-8"?>
<svg width="32px" height="32px" viewBox="0 0 32 32" version="1.1" xmlns="http://www.w3.org/2000/svg" xmlns:xlink="http://www.w3.org/1999/xlink">
    <!-- Generator: Sketch 54.1 (76490) - https://sketchapp.com -->
    <title>ic_app_vendor</title>
    <desc>Created with Sketch.</desc>
    <g id="Page-1" stroke="none" stroke-width="1" fill="none" fill-rule="evenodd">
        <g id="Group-51" transform="translate(6.000000, 4.000000)">
            <g id="Group-48-Copy" transform="translate(0.000000, 4.000000)">
                <path d="M13.3333333,1.40967881 L13.3333333,16.3845298 C13.3333333,16.844767 12.9602373,17.2178631 12.5,17.2178631 L0.569158987,17.2178631 L13.3333333,1.40967881 Z" id="Rectangle-Copy-34" fill="#B6F9FF"></path>
                <path d="M1.66666667,0 L13.3333333,0 C14.2538079,-1.69088438e-16 15,0.746192084 15,1.66666667 L15,18.3333333 C15,19.2538079 14.2538079,20 13.3333333,20 L1.66666667,20 C0.746192084,20 3.0447682e-15,19.2538079 8.8817842e-16,18.3333333 L0,1.66666667 C-1.12725625e-16,0.746192084 0.746192084,1.05726686e-15 1.66666667,8.8817842e-16 Z M2.5,2.5 C2.03976271,2.5 1.66666667,2.87309604 1.66666667,3.33333333 L1.66666667,15.8333333 C1.66666667,16.2935706 2.03976271,16.6666667 2.5,16.6666667 L12.5,16.6666667 C12.9602373,16.6666667 13.3333333,16.2935706 13.3333333,15.8333333 L13.3333333,3.33333333 C13.3333333,2.87309604 12.9602373,2.5 12.5,2.5 L2.5,2.5 Z" id="Combined-Shape" fill="#2CA6B1"></path>
                <g id="Group-47" transform="translate(5.000000, 0.833333)" stroke="#FFFFFF" stroke-linecap="round" stroke-linejoin="round" stroke-width="0.833333333">
                    <path d="M2.08333333,0.416666667 L4.63724772,0.416666667" id="Line-4"></path>
                    <path d="M0.416666667,0.416666667 L0.968933105,0.416666667" id="Line-4-Copy"></path>
                </g>
                <circle id="Oval" fill="#FFFFFF" cx="7.5" cy="18.3333333" r="1"></circle>
            </g>
            <g id="Group-50" transform="translate(5.000000, 0.000000)">
                <circle id="Oval" stroke="#2CA6B1" fill="#FFFFFF" cx="8" cy="8" r="8"></circle>
                <g id="Group-49" transform="translate(2.000000, 3.000000)" fill="#2CA6B1">
                    <path d="M6.83431942,10 L6.83431942,7.73374613 C6.83431942,7.03612329 6.26878437,6.47058824 5.57116152,6.47058824 C4.87353868,6.47058824 4.30800363,7.03612329 4.30800363,7.73374613 L4.30800363,10 L2.41505619,10 C1.71743335,10 1.15189829,9.43446495 1.15189829,8.73684211 C1.15189829,8.73624606 1.15189872,8.73565002 1.15189956,8.73505397 L1.15789474,4.5 L10,4.5 L9.99399976,8.73863024 C9.99301319,9.43555418 9.42776777,10 8.73084313,10 L6.83431942,10 Z" id="Combined-Shape"></path>
                    <path d="M2.18758146,0.315789474 C2.07339341,0.315789474 1.96810014,0.377433608 1.9122078,0.47700748 L0.375976269,3.21384959 C0.349477809,3.26105738 0.335560456,3.31428471 0.335560456,3.36842105 C0.335560456,3.54282676 0.47694422,3.68421053 0.65134993,3.68421053 L10.7167427,3.68421053 C10.7708735,3.68421053 10.8240955,3.67029603 10.8712999,3.64380274 C11.023389,3.55844318 11.077484,3.365953 10.9921244,3.21386389 L9.45607981,0.477021784 C9.40018977,0.37743989 9.29489204,0.315789474 9.18069812,0.315789474 L2.18758146,0.315789474 Z" id="Rectangle-Copy-35" stroke="#2CA6B1" stroke-width="0.631578947"></path>
                </g>
            </g>
        </g>
    </g>
</svg>