<?xml version="1.0" encoding="UTF-8"?>
<svg width="24px" height="24px" viewBox="0 0 24 24" version="1.1" xmlns="http://www.w3.org/2000/svg" xmlns:xlink="http://www.w3.org/1999/xlink">
    <!-- Generator: Sketch 54.1 (76490) - https://sketchapp.com -->
    <title>ic_brands</title>
    <desc>Created with Sketch.</desc>
    <g id="Multiple-Vendor" stroke="none" stroke-width="1" fill="none" fill-rule="evenodd">
        <g id="ic_brands_active">
            <g id="Group-20" transform="translate(3.500000, 4.000000)">
                <path d="M9.93482144,0.10740398 C10.9803739,-0.248817731 12.1167363,0.309995224 12.472958,1.35554765 C12.5015928,1.43959393 12.5245988,1.52545379 12.5418236,1.61255737 L13.4256141,6.08178733 C13.5195934,6.55703051 13.4378824,7.05023127 13.1956592,7.46977407 L8.92853718,14.8606462 C8.37625243,15.8172315 7.15307162,16.1449818 6.19648637,15.592697 C8.88122333,11.3416411 10.4823945,8.14407539 11,6 C11.3131357,4.70289915 10.9580761,2.73870048 9.93482144,0.10740398 Z" id="Shape" fill="#7CF4FF"></path>
                <path d="M5.78370863,2.04991897 C5.43978686,2.16709377 5.15008523,2.40511697 4.96841787,2.71977407 L0.701295845,10.1106462 C0.287082282,10.8280852 0.532895015,11.7454708 1.25033395,12.1596843 L6.44648637,15.1596843 C7.16392531,15.5738979 8.08131092,15.3280852 8.49552448,14.6106462 L12.7626465,7.21977407 C12.9443139,6.90511697 13.0055972,6.5352164 12.9351127,6.17878401 L12.0513222,1.70955406 C12.0384036,1.64422637 12.021149,1.57983147 11.999673,1.51679676 C11.7325067,0.732632446 10.8802349,0.31352273 10.0960706,0.580689013 L5.78370863,2.04991897 Z M7.34841016,7.5975065 C6.1526786,6.90715056 5.74299072,5.37817455 6.43334665,4.18244299 C7.12370259,2.98671143 8.6526786,2.57702354 9.84841016,3.26737948 C11.0441417,3.95773542 11.4538296,5.48671143 10.7634737,6.68244299 C10.0731177,7.87817455 8.54414172,8.28786244 7.34841016,7.5975065 Z" id="Shape-Copy" stroke="#2CA6B1"></path>
                <path d="M10.0971412,4.03290675 C9.17808345,4.76580158 8.58912088,5.89512337 8.58912088,7.16200474 C8.58912088,9.37114374 10.3799819,11.1620047 12.5891209,11.1620047 L12.5891209,11.1620047 C14.7982599,11.1620047 16.5891209,9.37114374 16.5891209,7.16200474 C16.5891209,4.95286574 14.7982599,3.16200474 12.5891209,3.16200474" id="Path" stroke="#2CA6B1"></path>
            </g>
        </g>
    </g>
</svg>