<?xml version="1.0" encoding="UTF-8"?>
<svg width="28px" height="28px" viewBox="0 0 28 28" version="1.1" xmlns="http://www.w3.org/2000/svg" xmlns:xlink="http://www.w3.org/1999/xlink">
    <!-- Generator: Sketch 54.1 (76490) - https://sketchapp.com -->
    <title>ic_card_del</title>
    <desc>Created with Sketch.</desc>
    <defs>
        <path d="M-1.42108547e-14,5.32907052e-15 L20,5.32907052e-15 C24.418278,4.51744602e-15 28,3.581722 28,8 L28,28 C12.536027,28 0,15.463973 0,5.32907052e-15 Z" id="path-1"></path>
    </defs>
    <g id="Multiple-Vendor" stroke="none" stroke-width="1" fill="none" fill-rule="evenodd">
        <g id="Group-14">
            <mask id="mask-2" fill="white">
                <use xlink:href="#path-1"></use>
            </mask>
            <use id="Combined-Shape" fill="#2CA6B1" xlink:href="#path-1"></use>
            <g id="ic_delete" mask="url(#mask-2)">
                <g transform="translate(10.000000, 5.000000)">
                    <g transform="translate(0.437500, 0.000000)">
                        <path d="M1.41111111,3.26666667 L1.41111111,12.1253718 C1.41111111,12.9015901 2.04120462,13.5333333 2.81591394,13.5333333 L10.4063083,13.5333333 C11.1847661,13.5333333 11.8111111,12.9048831 11.8111111,12.1253718 L11.8111111,3.26666667 L1.41111111,3.26666667 Z" id="Rectangle" stroke="#FFFFFF" stroke-width="0.933333333"></path>
                        <g id="Group" fill="#4C4C4C" stroke="#FFFFFF" stroke-width="0.933333333">
                            <rect id="Rectangle-2" x="0.466666667" y="1.4" width="12.2888889" height="1" rx="0.5"></rect>
                            <rect id="Rectangle-2-Copy" x="4.24444444" y="0.466666667" width="4.73333333" height="1" rx="0.5"></rect>
                        </g>
                    </g>
                </g>
            </g>
        </g>
    </g>
</svg>