<?xml version="1.0" encoding="UTF-8"?>
<svg width="32px" height="34px" viewBox="0 0 32 34" version="1.1" xmlns="http://www.w3.org/2000/svg" xmlns:xlink="http://www.w3.org/1999/xlink">
    <!-- Generator: Sketch 54.1 (76490) - https://sketchapp.com -->
    <title>ic_fb</title>
    <desc>Created with Sketch.</desc>
    <g id="Page-1" stroke="none" stroke-width="1" fill="none" fill-rule="evenodd" opacity="0.900000036">
        <circle id="Oval" fill="#FFFFFF" cx="16" cy="17" r="14"></circle>
        <g id="facebook" transform="translate(11.000000, 8.000000)" fill="#3B589C" fill-rule="nonzero">
            <path d="M0.309496154,9.58679297 L2.25221538,9.58679297 L2.25221538,17.7096797 C2.25221538,17.8700625 2.38015385,18 2.53806923,18 L5.83203462,18 C5.98995,18 6.11788846,17.8700625 6.11788846,17.7096797 L6.11788846,9.62507812 L8.35123846,9.62507812 C8.49645,9.62507812 8.61864231,9.51440625 8.63522308,9.36791016 L8.97441923,6.37748437 C8.98373077,6.29521875 8.95808077,6.2128125 8.90387308,6.15107812 C8.84963077,6.08930859 8.77198846,6.05394141 8.69050385,6.05394141 L6.11802692,6.05394141 L6.11802692,4.179375 C6.11802692,3.61430859 6.41758846,3.32775 7.00854231,3.32775 C7.09276154,3.32775 8.69050385,3.32775 8.69050385,3.32775 C8.84841923,3.32775 8.97635769,3.19774219 8.97635769,3.03742969 L8.97635769,0.292464844 C8.97635769,0.132082031 8.84841923,0.00214453125 8.69050385,0.00214453125 L6.37248462,0.00214453125 C6.35614615,0.0013359375 6.31983462,0 6.26631923,0 C5.86412308,0 4.46611154,0.0801914062 3.36177692,1.11199219 C2.13819231,2.25541406 2.30829231,3.62443359 2.34893077,3.86180859 L2.34893077,6.05387109 L0.309461538,6.05387109 C0.151546154,6.05387109 0.0236076923,6.18380859 0.0236076923,6.34419141 L0.0236076923,9.2964375 C0.0236423077,9.45678516 0.151580769,9.58679297 0.309496154,9.58679297 Z" id="Path"></path>
        </g>
    </g>
</svg>