<?xml version="1.0" encoding="UTF-8"?>
<svg width="99px" height="28px" viewBox="0 0 99 28" version="1.1" xmlns="http://www.w3.org/2000/svg" xmlns:xlink="http://www.w3.org/1999/xlink">
    <!-- Generator: Sketch 54.1 (76490) - https://sketchapp.com -->
    <title>logo</title>
    <desc>Created with Sketch.</desc>
    <g id="Page-1" stroke="none" stroke-width="1" fill="none" fill-rule="evenodd">
        <g id="Group-31-Copy" transform="translate(0.000000, -6.000000)">
            <path d="M7.05255129,20.8462439 L5.3683557,20.8462439 L5.3683557,28.4737066 C5.3683557,29.4777513 5.14703734,30.2172785 4.70439398,30.6923104 C4.26175062,31.1673423 3.68416367,31.4048547 2.97161582,31.4048547 C2.20508708,31.4048547 1.61130611,31.1565463 1.19025511,30.659922 C0.769204103,30.1632978 0.55868176,29.4345666 0.55868176,28.4737066 L0.55868176,10.2066622 C0.55868176,9.17022892 0.790796138,8.41990569 1.25503186,7.95566997 C1.71926758,7.49143425 2.4695908,7.25931987 3.50602404,7.25931987 L11.327817,7.25931987 C12.407435,7.25931987 13.3304945,7.30520295 14.0970232,7.39697047 C14.863552,7.488738 15.5544971,7.6749693 16.1698793,7.95566997 C16.9148157,8.26875918 17.5733728,8.71679391 18.1455703,9.29978761 C18.7177678,9.8827813 19.1523075,10.5602314 19.4492025,11.3321582 C19.7460974,12.1040851 19.8945427,12.9218834 19.8945427,13.7855778 C19.8945427,15.5561512 19.3952268,16.9704295 18.3965802,18.0284551 C17.3979336,19.0864807 15.8837922,19.8368039 13.8541104,20.2794473 C14.7070086,20.7328869 15.5221079,21.4022399 16.2994328,22.2875267 C17.0767578,23.1728134 17.7704019,24.1147659 18.380386,25.1134125 C18.9903702,26.1120591 19.465395,27.0135266 19.8054746,27.817842 C20.1455543,28.6221574 20.3155916,29.1754533 20.3155916,29.4777463 C20.3155916,29.7908355 20.2157284,30.101221 20.0159991,30.4089121 C19.8162697,30.7166032 19.5436703,30.9595136 19.1981926,31.1376506 C18.8527148,31.3157876 18.4532622,31.4048547 17.9998226,31.4048547 C17.4600136,31.4048547 17.0065809,31.2780015 16.6395108,31.0242913 C16.2724407,30.7705811 15.9566572,30.4493995 15.6921508,30.0607371 C15.4276444,29.6720746 15.0686768,29.0998857 14.6152373,28.3441531 L12.6881288,25.1377038 C11.9971733,23.9609202 11.3791013,23.0648508 10.8338943,22.4494685 C10.2886872,21.8340863 9.7353913,21.4130416 9.17398996,21.1863219 C8.61258863,20.9596021 7.90544947,20.8462439 7.05255129,20.8462439 Z M9.80556331,10.8706239 L5.3683557,10.8706239 L5.3683557,17.3968818 L9.6760098,17.3968818 C10.831201,17.3968818 11.8028426,17.2970186 12.5909637,17.0972893 C13.3790848,16.89756 13.9809628,16.5574854 14.3966157,16.0770554 C14.8122686,15.5966254 15.020092,14.9353694 15.020092,14.0932674 C15.020092,13.4347004 14.8527537,12.8544145 14.5180721,12.3523921 C14.1833906,11.8503698 13.7191618,11.4752082 13.1253719,11.226896 C12.5639706,10.9893801 11.4573788,10.8706239 9.80556331,10.8706239 Z" id="R" fill="#333333" fill-rule="nonzero"></path>
            <path d="M60.7740721,28.4737066 L60.7740721,20.943409 L54.9765527,11.9556345 C54.4691323,11.145921 54.1101647,10.514354 53.8996392,10.0609145 C53.6891137,9.60747492 53.5838525,9.21342028 53.5838525,8.87873871 C53.5838525,8.32813355 53.7970738,7.85310878 54.2235229,7.45365013 C54.649972,7.05419149 55.1762779,6.85446517 55.8024563,6.85446517 C56.4610232,6.85446517 56.9603391,7.04069647 57.3004187,7.41316466 C57.6404984,7.78563286 58.1506102,8.52785907 58.8307695,9.63986556 L63.2679771,16.8462794 L67.7537673,9.63986556 C68.0236718,9.1972222 68.2503882,8.82475959 68.4339232,8.52246657 C68.6174583,8.22017354 68.8198836,7.93677808 69.0412053,7.67227168 C69.262527,7.40776528 69.5081364,7.20533995 69.7780408,7.06498961 C70.0479453,6.92463928 70.3772239,6.85446517 70.7658863,6.85446517 C71.3704724,6.85446517 71.8751862,7.05149249 72.2800429,7.44555304 C72.6848997,7.83961359 72.887325,8.29574534 72.887325,8.81396196 C72.887325,9.23501296 72.7847628,9.65605765 72.5796354,10.0771086 C72.374508,10.4981596 72.0236374,11.0811446 71.5270132,11.826081 L65.5837461,20.943409 L65.5837461,28.4737066 C65.5837461,29.456159 65.3570297,30.1902882 64.9035902,30.6761162 C64.4501506,31.1619443 63.8725637,31.4048547 63.170812,31.4048547 C62.4582641,31.4048547 61.8806772,31.1646433 61.4380338,30.6842133 C60.9953905,30.2037833 60.7740721,29.4669551 60.7740721,28.4737066 Z M86.6523851,6.85446517 C89.113914,6.85446517 91.2272345,7.35378098 92.9924098,8.35242759 C94.7575852,9.3510742 96.0935924,10.7707505 97.0004715,12.6114991 C97.9073505,14.4522477 98.3607833,16.6141503 98.3607833,19.0972716 C98.3607833,20.9326221 98.1124749,22.6006068 97.6158506,24.1012758 C97.1192264,25.6019447 96.3743012,26.9028648 95.3810526,28.0040752 C94.3878041,29.1052855 93.1678541,29.9473748 91.7211661,30.5303685 C90.274478,31.1133622 88.6172893,31.4048547 86.7495502,31.4048547 C84.8926074,31.4048547 83.2300206,31.1052652 81.7617402,30.5060773 C80.2934598,29.9068893 79.0681118,29.0621009 78.0856595,27.9716868 C77.1032071,26.8812726 76.3609809,25.5695565 75.8589586,24.036499 C75.3569362,22.5034415 75.1059288,20.8462528 75.1059288,19.0648832 C75.1059288,17.2403288 75.3677322,15.5669461 75.8913469,14.0446848 C76.4149617,12.5224235 77.1733819,11.2269014 78.1666304,10.1580796 C79.1598789,9.08925781 80.3690329,8.27145948 81.7941286,7.70466005 C83.2192243,7.13786063 84.8386269,6.85446517 86.6523851,6.85446517 Z M93.4863326,19.0648832 C93.4863326,17.3266983 93.2056361,15.8206538 92.6442348,14.5467046 C92.0828335,13.2727554 91.2812292,12.3092109 90.2393978,11.656042 C89.1975665,11.0028731 88.0019076,10.6762936 86.6523851,10.6762936 C85.6915251,10.6762936 84.8035527,10.8571269 83.9884411,11.2187989 C83.1733296,11.5804709 82.4715884,12.1067768 81.8831966,12.7977323 C81.2948049,13.4886878 80.8305761,14.3712622 80.4904964,15.4454821 C80.1504168,16.519702 79.9803795,17.7261569 79.9803795,19.0648832 C79.9803795,20.4144056 80.1504168,21.6343556 80.4904964,22.7247698 C80.8305761,23.8151839 81.3109989,24.7193504 81.9317792,25.4372963 C82.5525595,26.1552422 83.2650967,26.6923441 84.0694121,27.048618 C84.8737274,27.404892 85.7563019,27.5830263 86.7171619,27.5830263 C87.9479263,27.5830263 89.0788092,27.2753398 90.1098443,26.6599575 C91.1408795,26.0445753 91.9613768,25.0945257 92.571361,23.8097804 C93.1813451,22.525035 93.4863326,20.9434184 93.4863326,19.0648832 Z" id="YO" fill="#333333" fill-rule="nonzero"></path>
            <g id="Group-4" transform="translate(23.435672, 7.384550)">
                <g id="Group-3" transform="translate(4.102528, 0.000000)">
                    <circle id="Combined-Shape" fill="#2CA6B1" cx="10.6665721" cy="10.6665721" r="10.6665721"></circle>
                    <ellipse id="Oval" stroke="#FFFFFF" stroke-width="1.18517467" cx="10.6665721" cy="10.6665721" rx="4.74069869" ry="11.2591594"></ellipse>
                    <ellipse id="Oval-Copy" stroke="#FFFFFF" stroke-width="1.18517467" transform="translate(10.666572, 10.666572) rotate(-270.000000) translate(-10.666572, -10.666572) " cx="10.6665721" cy="10.6665721" rx="4.74069869" ry="11.2591594"></ellipse>
                </g>
                <path d="M4.10252772,14.6857672 L15.2511387,14.6857672 C15.7042914,14.6857672 16.0716443,15.05312 16.0716443,15.5062727 C16.0716443,15.5864384 16.059896,15.6661713 16.0367739,15.74293 L13.6113476,23.7946608 L5.06425797,18.7947051 L4.10252772,14.6857672 Z" id="Path-7" fill="#FFFFFF"></path>
                <g id="ic_cart" transform="translate(0.000000, 11.487078)">
                    <g id="Group" transform="translate(0.259827, 0.512816)">
                        <g id="Group-2" transform="translate(0.000000, 0.549446)">
                            <ellipse id="Oval-Copy" fill="#2CA6B1" cx="11.5753507" cy="12.3075831" rx="1.7761702" ry="1.75822616"></ellipse>
                            <ellipse id="Oval-Copy-2" fill="#2CA6B1" cx="5.33950856" cy="12.3075831" rx="1.7761702" ry="1.75822616"></ellipse>
                            <polyline id="Rectangle-2" stroke="#2CA6B1" stroke-width="0.820505543" stroke-linecap="round" stroke-linejoin="round" points="5.33950856 3.16847007 14.5502983 3.16847007 12.8576418 8.79113082 3.85032566 8.79113082 2.23983723 0.880890584 0 0"></polyline>
                        </g>
                    </g>
                    <path d="M5.45750368,8.06803742 L9.42810148,8.06803742" id="Line" stroke="#2CA6B1" stroke-width="0.820505543" stroke-linecap="round" stroke-linejoin="round" fill-rule="nonzero"></path>
                    <path d="M5.45750368,6.42702633 L7.34074018,6.42702633" id="Line-Copy" stroke="#2CA6B1" stroke-width="0.820505543" stroke-linecap="round" stroke-linejoin="round" fill-rule="nonzero"></path>
                </g>
            </g>
        </g>
    </g>
</svg>