<?xml version="1.0" encoding="UTF-8"?>
<svg width="24px" height="24px" viewBox="0 0 24 24" version="1.1" xmlns="http://www.w3.org/2000/svg" xmlns:xlink="http://www.w3.org/1999/xlink">
    <!-- Generator: Sketch 54.1 (76490) - https://sketchapp.com -->
    <title>ic_profile</title>
    <desc>Created with Sketch.</desc>
    <defs>
        <circle id="path-1" cx="8" cy="8" r="8"></circle>
    </defs>
    <g id="Multiple-Vendor" stroke="none" stroke-width="1" fill="none" fill-rule="evenodd">
        <g id="ic_customer_active">
            <g id="Group-2" transform="translate(4.000000, 4.000000)">
                <path d="M11.6773065,15.106616 C14.2453415,13.7750877 16,11.0924551 16,8 C16,4.79207634 14.1118615,2.02515106 11.3862914,0.74993102 C10.3579297,0.268788611 6,3.081722 6,7.5 C6,11.918278 10.5763172,15.6774799 11.6773065,15.106616 Z" id="Mask" fill="#7CF4FF" fill-rule="nonzero"></path>
                <g id="Group">
                    <mask id="mask-2" fill="white">
                        <use xlink:href="#path-1"></use>
                    </mask>
                    <circle stroke="#2CA6B1" cx="8" cy="8" r="7.5"></circle>
                    <circle id="Oval" stroke="#2CA6B1" mask="url(#mask-2)" cx="8" cy="8" r="3.33333333"></circle>
                    <path d="M2,18 L2,16.6666667 C2,13.721148 4.38781467,11.3333333 7.33333333,11.3333333 L7.33333333,11.3333333 L8.66666667,11.3333333 C11.6121853,11.3333333 14,13.721148 14,16.6666667 L14,18" id="Rectangle-5" stroke="#2CA6B1" stroke-linecap="round" stroke-linejoin="round" mask="url(#mask-2)"></path>
                </g>
            </g>
        </g>
    </g>
</svg>