<?xml version="1.0" encoding="UTF-8"?>
<svg width="24px" height="24px" viewBox="0 0 24 24" version="1.1" xmlns="http://www.w3.org/2000/svg" xmlns:xlink="http://www.w3.org/1999/xlink">
    <!-- Generator: Sketch 54.1 (76490) - https://sketchapp.com -->
    <title>ic_promo_active copy</title>
    <desc>Created with Sketch.</desc>
    <g id="assets-panel" stroke="none" stroke-width="1" fill="none" fill-rule="evenodd">
        <g id="Group-26-Copy-6" transform="translate(4.000000, 4.000000)">
            <path d="M10.3520394,14.3027437 C13.1030701,13.1693596 15,10.7729768 15,8 C15,4.91953762 12.6590581,2.30381808 9.40679945,1.36802279 C8.57745981,1.12939106 6.5,4.13400675 6.5,8 C6.5,11.8659932 9.26767339,14.7494865 10.3520394,14.3027437 Z" id="Oval" fill="#D2C9B0"></path>
            <circle id="Oval-Copy-8" stroke="#9D8A5F" cx="8" cy="8" r="6.5"></circle>
            <circle id="Combined-Shape-Copy" stroke="#9D8A5F" cx="8" cy="8" r="8"></circle>
            <path d="M6.1576,7.072 C5.3176,7.072 4.6456,6.4 4.6456,5.56 C4.6456,4.72 5.3176,4.048 6.1576,4.048 C6.9864,4.048 7.6696,4.72 7.6696,5.56 C7.6696,6.4 6.9864,7.072 6.1576,7.072 Z M5.564,11.6976 L9.4056,4.272 C9.4392,4.2048 9.5064,4.16 9.596,4.16 L10.156,4.16 C10.324,4.16 10.4248,4.3168 10.3464,4.4624 L6.4824,11.888 C6.46,11.9328 6.3816,12 6.292,12 L5.7544,12 C5.5864,12 5.4856,11.8432 5.564,11.6976 Z M6.1576,6.1088 C6.4488,6.1088 6.6952,5.8624 6.6952,5.56 C6.6952,5.2688 6.4488,5.0224 6.1576,5.0224 C5.8552,5.0224 5.6088,5.2688 5.6088,5.56 C5.6088,5.8624 5.8552,6.1088 6.1576,6.1088 Z M8.3304,10.6 C8.3304,9.76 9.0136,9.088 9.8424,9.088 C10.6824,9.088 11.3656,9.76 11.3656,10.6 C11.3656,11.44 10.6824,12.112 9.8424,12.112 C9.0136,12.112 8.3304,11.44 8.3304,10.6 Z M9.2936,10.6 C9.2936,10.9024 9.54,11.1488 9.8424,11.1488 C10.1336,11.1488 10.3912,10.9024 10.3912,10.6 C10.3912,10.3088 10.1336,10.0624 9.8424,10.0624 C9.54,10.0624 9.2936,10.3088 9.2936,10.6 Z" id="%" fill="#9D8A5F" fill-rule="nonzero"></path>
        </g>
    </g>
</svg>