<?xml version="1.0" encoding="UTF-8"?>
<svg width="24px" height="24px" viewBox="0 0 24 24" version="1.1" xmlns="http://www.w3.org/2000/svg" xmlns:xlink="http://www.w3.org/1999/xlink">
    <!-- Generator: Sketch 54.1 (76490) - https://sketchapp.com -->
    <title>ic_promotions</title>
    <desc>Created with Sketch.</desc>
    <g id="Multiple-Vendor" stroke="none" stroke-width="1" fill="none" fill-rule="evenodd">
        <g id="ic_promotions_active">
            <g id="Group-9-Copy-2" transform="translate(12.000000, 12.000000) rotate(-15.000000) translate(-12.000000, -12.000000) translate(3.500000, 4.000000)">
                <path d="M8,3 L10,3 L10,11 L8,11 C5.790861,11 4,9.209139 4,7 L4,7 C4,4.790861 5.790861,3 8,3 Z" id="Rectangle-Copy-29" fill="#7CF4FF"></path>
                <path d="M10.5,10.5 L10.5,3.5 L4,3.5 C2.06700338,3.5 0.5,5.06700338 0.5,7 C0.5,8.93299662 2.06700338,10.5 4,10.5 L10.5,10.5 Z" id="Rectangle" stroke="#2CA6B1"></path>
                <path d="M4.5,10.5 L4.5,15 C4.5,15.2761424 4.72385763,15.5 5,15.5 L6,15.5 C6.27614237,15.5 6.5,15.2761424 6.5,15 L6.5,10.5 L4.5,10.5 Z" id="Rectangle" stroke="#2CA6B1"></path>
                <path d="M13,3 L15.4,1.2 C15.8418278,0.86862915 16.4686292,0.9581722 16.8,1.4 C16.9298221,1.57309617 17,1.78362979 17,2 L17,12 C17,12.5522847 16.5522847,13 16,13 C15.7836298,13 15.5730962,12.9298221 15.4,12.8 L13,11 L13,3 Z" id="Rectangle-Copy-31" fill="#7CF4FF"></path>
                <path d="M10.5,3.32969808 L10.5,10.6703019 L15.8030404,12.9430335 C15.8652788,12.9697071 15.9322866,12.983461 16,12.983461 C16.2761424,12.983461 16.5,12.7596034 16.5,12.483461 L16.5,1.51653902 C16.5,1.44882563 16.4862461,1.38181779 16.4595725,1.31957937 C16.3507947,1.06576447 16.0568552,0.948188689 15.8030404,1.0569665 L10.5,3.32969808 Z" id="Rectangle" stroke="#2CA6B1"></path>
            </g>
        </g>
    </g>
</svg>