<?xml version="1.0" encoding="UTF-8"?>
<svg width="24px" height="24px" viewBox="0 0 24 24" version="1.1" xmlns="http://www.w3.org/2000/svg" xmlns:xlink="http://www.w3.org/1999/xlink">
    <!-- Generator: Sketch 54.1 (76490) - https://sketchapp.com -->
    <title>ic_profile_active  copy</title>
    <desc>Created with Sketch.</desc>
    <defs>
        <path d="M5.67730646,15.106616 C8.24534153,13.7750877 10,11.0924551 10,8 C10,4.79207634 8.1118615,2.02515106 5.38629138,0.74993102 C4.35792974,0.268788611 -1.38777878e-16,3.081722 -1.38777878e-16,7.5 C-1.38777878e-16,11.918278 4.57631722,15.6774799 5.67730646,15.106616 Z" id="path-1"></path>
        <circle id="path-3" cx="2" cy="8" r="8"></circle>
    </defs>
    <g id="assets-panel" stroke="none" stroke-width="1" fill="none" fill-rule="evenodd">
        <g id="Group-42-Copy" transform="translate(10.000000, 4.000000)">
            <g id="Group-35">
                <g id="Group-27">
                    <g id="Oval-+-Rectangle-5-Mask-Copy" transform="translate(0.333333, 0.000000)">
                        <mask id="mask-2" fill="white">
                            <use xlink:href="#path-1"></use>
                        </mask>
                        <use id="Mask" fill="#D2C9B0" fill-rule="nonzero" xlink:href="#path-1"></use>
                        <mask id="mask-4" fill="white">
                            <use xlink:href="#path-3"></use>
                        </mask>
                        <circle stroke="#9D8A5F" cx="2" cy="8" r="7.5"></circle>
                        <g id="Group" mask="url(#mask-4)" stroke="#9D8A5F">
                            <g transform="translate(-4.000000, 4.666667)">
                                <circle id="Oval" cx="6" cy="3.33333333" r="3.33333333"></circle>
                                <path d="M0,13.3333333 L0,12 C-2.96059473e-16,9.05448133 2.38781467,6.66666667 5.33333333,6.66666667 L5.33333333,6.66666667 L6.66666667,6.66666667 C9.61218533,6.66666667 12,9.05448133 12,12 L12,13.3333333" id="Rectangle-5" stroke-linecap="round" stroke-linejoin="round"></path>
                            </g>
                        </g>
                    </g>
                </g>
            </g>
        </g>
    </g>
</svg>