<?xml version="1.0" encoding="UTF-8"?>
<svg width="24px" height="24px" viewBox="0 0 24 24" version="1.1" xmlns="http://www.w3.org/2000/svg" xmlns:xlink="http://www.w3.org/1999/xlink">
    <!-- Generator: Sketch 54.1 (76490) - https://sketchapp.com -->
    <title>ic_reports_active</title>
    <desc>Created with Sketch.</desc>
    <g id="Multiple-Vendor" stroke="none" stroke-width="1" fill="none" fill-rule="evenodd">
        <g id="ic_agents_active">
            <g id="security-agent-with-earpiece-wearing-suit-and-tie" transform="translate(5.500000, 3.000000)">
                <path d="M8.13733898,8.10942857 C8.04923683,9.77543849 8.00345717,10.905629 8,11.5 C7.9770695,15.4423082 8.50626051,17 9.5,17 C13.0692712,17 12.5855424,16.8499286 12.7137797,16.7871429 L12.9671695,16.662 L12.9938305,16.662 L12.9938305,12.8329286 C12.9942712,10.2282857 10.8155593,8.10942857 8.13733898,8.10942857 Z M5.7239661,8.88664286 L7.38598305,8.88664286 C7.52281356,8.88664286 7.63386441,8.99421429 7.63386441,9.12771429 L6.96381356,10.5188571 L6.16772881,10.5188571 L5.47564407,9.12771429 C5.47564407,8.99421429 5.58647458,8.88664286 5.7239661,8.88664286 Z M7.82842373,15.5402143 L6.5830678,17.1715714 C6.57359322,17.1852857 6.55861017,17.193 6.54208475,17.193 C6.54164407,17.193 6.54120339,17.193 6.54076271,17.193 C6.52445763,17.193 6.50881356,17.1846429 6.49977966,17.1707143 L5.30377966,15.5385 C5.29827119,15.5301429 5.29562712,15.5200714 5.2960678,15.5095714 L6.16971186,10.7087143 C6.17147458,10.6832143 6.19284746,10.6639286 6.21928814,10.6639286 L6.88889831,10.6639286 C6.91511864,10.6639286 6.93671186,10.6832143 6.93891525,10.7087143 L7.83657627,15.5091429 C7.83789831,15.5207143 7.83481356,15.5312143 7.82842373,15.5402143 Z M7.5,7 C7.74677966,6.67557143 10.1369153,5.50714286 10.2711017,5.11692857 C10.2415763,5.98821429 10.1322881,6.85885714 9.90269492,7.05578571 C9.81147458,7.134 9.80266102,7.26942857 9.88308475,7.35814286 C9.92627119,7.40635714 9.98752542,7.43078571 10.048339,7.43078571 C10.1001186,7.43078571 10.152339,7.41321429 10.1939831,7.37721429 C10.7933051,6.86378571 10.7283051,4.52164286 10.7091356,4.05728571 C10.7045085,3.939 10.6002881,3.84664286 10.4802034,3.85178571 C10.4588305,1.722 9.19501695,0.5 7,0.5 C5.90663151,0.5 5.69313075,2.76339846 6,4.5 C6.31240889,6.26795083 7.15830956,7.5052654 7.5,7 Z" id="Shape" fill="#7CF4FF" fill-rule="nonzero"></path>
                <path d="M3.23736865,8.93659203 L3.22061176,8.94349766 C1.62202066,9.60228771 0.561915254,11.1269857 0.561915254,12.8329286 L0.555598516,16.3461251 C2.82699812,17.029658 4.96142628,17.3401429 6.9470678,17.3401429 C8.47204558,17.3401429 9.82556808,17.158204 10.9946547,16.8533647 C11.7104559,16.6667196 12.2100636,16.477053 12.4923723,16.3388363 L12.4938305,16.3381161 L12.4938305,12.832844 C12.4942239,10.5076205 10.542533,8.60942857 8.13733898,8.60942857 L4.91840678,8.60942857 C4.33318027,8.60942857 3.76447894,8.72165814 3.23736865,8.93659203 Z M6.56494553,10.1947506 L6.53892115,10.2487817 L6.56860228,10.2671669 L6.59326369,10.2516722 L6.56494553,10.1947506 Z M5.7239661,8.38664286 L7.38598305,8.38664286 C7.79590613,8.38664286 8.13386441,8.71491304 8.13386441,9.12771429 L8.08433469,9.34468553 L7.27796164,11.0188571 L5.85801796,11.0188571 L4.97564407,9.24521867 L4.97564407,9.12771429 C4.97564407,8.71470214 5.31359256,8.38664286 5.7239661,8.38664286 Z M8.23611885,15.8296701 L8.22585554,15.8436083 L6.99444346,17.4557722 C6.89133479,17.6050202 6.7223779,17.693 6.54208475,17.693 C6.54175424,17.693 6.54175424,17.693 6.54142373,17.693 C6.54109322,17.693 6.54109322,17.693 6.54076271,17.693 C6.3552616,17.693 6.1816289,17.5990415 6.09646441,17.4662423 L4.88630877,15.8136691 C4.80545014,15.6538353 4.80545014,15.6538353 4.80414657,15.4200532 L5.6709022,10.6742336 C5.69103618,10.3829685 5.93358887,10.1639286 6.21928814,10.1639286 L6.88889831,10.1639286 C7.17194157,10.1639286 7.41228606,10.3789709 7.43039616,10.6168093 L8.33334462,15.4523872 C8.34887241,15.588298 8.31283461,15.7216169 8.23611885,15.8296701 Z M10.0052597,4.35242857 L10.2182002,4.35242857 C10.2272039,4.76297113 10.2199346,5.22064562 10.1850664,5.65922167 C10.1281862,6.3746672 9.9943034,6.88914809 9.86903569,6.99720086 C9.91925098,6.9539406 9.98380544,6.93078571 10.048339,6.93078571 C10.1248733,6.93078571 10.2006209,6.96324772 10.2555236,7.02454237 C10.3625229,7.14255843 10.3503129,7.33061801 10.2281516,7.43536174 C10.5959997,7.11984807 10.7302773,6.33011169 10.7708149,5.13386245 L10.883878,1.79740596 L10.0052597,4.35242857 Z M9.86903569,6.99720086 C9.86891985,6.99730079 9.86880402,6.99740036 9.86868819,6.99749958 C9.86880926,6.9973949 9.86893042,6.99729034 9.86905166,6.9971859 Z" id="Shape-Copy" stroke="#2CA6B1" fill-rule="nonzero"></path>
            </g>
        </g>
    </g>
</svg>