<?xml version="1.0" encoding="UTF-8"?>
<svg width="24px" height="24px" viewBox="0 0 24 24" version="1.1" xmlns="http://www.w3.org/2000/svg" xmlns:xlink="http://www.w3.org/1999/xlink">
    <!-- Generator: Sketch 54.1 (76490) - https://sketchapp.com -->
    <title>ic_reports_active  copy</title>
    <desc>Created with Sketch.</desc>
    <g id="assets-panel" stroke="none" stroke-width="1" fill="none" fill-rule="evenodd">
        <g id="Group-28-Copy" transform="translate(4.000000, 3.000000)">
            <path d="M5,2 L5,2 C6.65685425,2 8,3.34314575 8,5 L8,5 C8,6.65685425 6.65685425,8 5,8 L5,8 C4.66666667,7 4.5,6 4.5,5 C4.5,4 4.66666667,3 5,2 Z" id="Rectangle" fill="#D2C9B0"></path>
            <path d="M9.5,0 L14,0 C15.1045695,-2.02906125e-16 16,0.8954305 16,2 L16,13 L10,18 L9.5,18 C8.3954305,18 7.5,17.1045695 7.5,16 L7.5,2 C7.5,0.8954305 8.3954305,2.02906125e-16 9.5,0 Z" id="Rectangle-Copy-12" fill="#D2C9B0"></path>
            <path d="M9.81897503,17.5 L15.5,12.7658125 L15.5,2 C15.5,1.17157288 14.8284271,0.5 14,0.5 L2,0.5 C1.17157288,0.5 0.5,1.17157288 0.5,2 L0.5,16 C0.5,16.8284271 1.17157288,17.5 2,17.5 L9.81897503,17.5 Z" id="Rectangle-Copy-27" stroke="#9D8A5F"></path>
            <rect id="Rectangle-Copy-18" stroke="#9D8A5F" x="2.5" y="2.5" width="5" height="5" rx="2.5"></rect>
            <path d="M10,17.5 L10,13.5 C10,12.9477153 10.4477153,12.5 11,12.5 L15.5,12.5" id="Path-7" stroke="#9D8A5F"></path>
            <polyline id="Path-11" stroke="#9D8A5F" points="3 15 5 11 10 10 12 6.5"></polyline>
            <path d="M11.3380063,5.7277832 L12.6551636,5.7277832 C12.7656205,5.7277832 12.8551636,5.81732625 12.8551636,5.9277832 L12.8551636,7.24494049 C12.8551636,7.35539744 12.7656205,7.44494049 12.6551636,7.44494049 C12.6021203,7.44494049 12.5512495,7.42386912 12.5137422,7.38636185 L11.1965849,6.06920456 C11.1184801,5.9910997 11.1184801,5.86446671 11.1965849,5.78636185 C11.2340922,5.74885457 11.284963,5.7277832 11.3380063,5.7277832 Z" id="Rectangle" fill="#9D8A5F" transform="translate(11.855164, 6.727783) rotate(-13.000000) translate(-11.855164, -6.727783) "></path>
        </g>
    </g>
</svg>