<?xml version="1.0" encoding="UTF-8"?>
<svg width="24px" height="24px" viewBox="0 0 24 24" version="1.1" xmlns="http://www.w3.org/2000/svg" xmlns:xlink="http://www.w3.org/1999/xlink">
    <!-- Generator: Sketch 54.1 (76490) - https://sketchapp.com -->
    <title>ic_settings_active copy</title>
    <desc>Created with Sketch.</desc>
    <g id="assets-panel" stroke="none" stroke-width="1" fill="none" fill-rule="evenodd">
        <g id="Group-26-Copy-5" transform="translate(4.000000, 4.000000)">
            <g id="Group-26-Copy">
                <path d="M9.59871954,14.3353965 C9.59957049,14.3568253 9.6,14.3783625 9.6,14.4 C9.6,15.2836556 8.8836556,16 8,16 C7.1163444,16 6.4,15.2836556 6.4,14.4 C6.4,14.1606473 6.45255724,13.93357 6.54676071,13.7296791 C5.0585655,12.6804894 4.4,10.5088263 4.4,8 C4.4,5.49117369 5.0585655,3.31951056 6.54676071,2.27032095 C6.45255724,2.06643003 6.4,1.83935272 6.4,1.6 C6.4,0.7163444 7.1163444,0 8,0 C8.8836556,0 9.6,0.7163444 9.6,1.6 C9.6,1.62163751 9.59957049,1.64317471 9.59871954,1.66460352 C10.2424292,1.76965905 10.850843,1.99982073 11.4045016,2.33284925 C12.0301307,1.71832595 13.0354666,1.72175811 13.6568542,2.34314575 C14.2816931,2.96798462 14.2816931,3.98104858 13.6568542,4.60588745 C13.6334534,4.62928832 13.609508,4.65181281 13.5850589,4.6734609 C13.8690834,5.20594322 14.0869723,5.7895538 14.2256827,6.40938637 C14.2829367,6.403183 14.3410966,6.4 14.4,6.4 C15.2836556,6.4 16,7.1163444 16,8 C16,8.8836556 15.2836556,9.6 14.4,9.6 C14.3410966,9.6 14.2829367,9.596817 14.2256827,9.59061363 C14.0869723,10.2104462 13.8690834,10.7940568 13.5850589,11.3265391 C13.609508,11.3481872 13.6334534,11.3707117 13.6568542,11.3941125 C14.2816931,12.0189514 14.2816931,13.0320154 13.6568542,13.6568542 C13.0354666,14.2782419 12.0301307,14.2816741 11.4045016,13.6671507 C10.850843,14.0001793 10.2424292,14.230341 9.59871954,14.3353965 Z" id="Combined-Shape-Copy" fill="#D2C9B0"></path>
                <path d="M4.73796325,2.49255941 C5.25376144,2.18639498 5.81625167,1.950629 6.41219275,1.79850265 C6.4041448,1.73346427 6.4,1.66721617 6.4,1.6 C6.4,0.7163444 7.1163444,0 8,0 C8.8836556,0 9.6,0.7163444 9.6,1.6 C9.6,1.66721617 9.5958552,1.73346427 9.58780725,1.79850265 C10.1837483,1.950629 10.7462386,2.18639498 11.2620368,2.49255941 C11.3024266,2.44072583 11.3464519,2.39080642 11.3941125,2.34314575 C12.0189514,1.71830688 13.0320154,1.71830688 13.6568542,2.34314575 C14.2816931,2.96798462 14.2816931,3.98104858 13.6568542,4.60588745 C13.6091936,4.65354812 13.5592742,4.69757338 13.5074406,4.73796325 C13.813605,5.25376145 14.049371,5.81625167 14.2014973,6.41219275 C14.2665357,6.4041448 14.3327838,6.4 14.4,6.4 C15.2836556,6.4 16,7.1163444 16,8 C16,8.8836556 15.2836556,9.6 14.4,9.6 C14.3327838,9.6 14.2665357,9.5958552 14.2014973,9.58780725 C14.049371,10.1837483 13.813605,10.7462386 13.5074406,11.2620368 C13.5592742,11.3024266 13.6091936,11.3464519 13.6568542,11.3941125 C14.2816931,12.0189514 14.2816931,13.0320154 13.6568542,13.6568542 C13.0320154,14.2816931 12.0189514,14.2816931 11.3941125,13.6568542 C11.3464519,13.6091936 11.3024266,13.5592742 11.2620368,13.5074406 C10.7462386,13.813605 10.1837483,14.049371 9.58780725,14.2014973 C9.5958552,14.2665357 9.6,14.3327838 9.6,14.4 C9.6,15.2836556 8.8836556,16 8,16 C7.1163444,16 6.4,15.2836556 6.4,14.4 C6.4,14.3327838 6.4041448,14.2665357 6.41219275,14.2014973 C5.81625167,14.049371 5.25376144,13.813605 4.73796325,13.5074406 C4.69757338,13.5592742 4.65354812,13.6091936 4.60588745,13.6568542 C3.98104858,14.2816931 2.96798462,14.2816931 2.34314575,13.6568542 C1.71830688,13.0320154 1.71830688,12.0189514 2.34314575,11.3941125 C2.39080642,11.3464519 2.44072583,11.3024266 2.49255941,11.2620368 C2.18639498,10.7462386 1.950629,10.1837483 1.79850265,9.58780725 C1.73346427,9.5958552 1.66721617,9.6 1.6,9.6 C0.7163444,9.6 9.04542734e-17,8.8836556 -7.18706269e-17,8 C-2.34195527e-16,7.1163444 0.7163444,6.4 1.6,6.4 C1.66721617,6.4 1.73346427,6.4041448 1.79850265,6.41219275 C1.950629,5.81625167 2.18639498,5.25376144 2.49255941,4.73796325 C2.44072583,4.69757338 2.39080642,4.65354812 2.34314575,4.60588745 C1.71830688,3.98104858 1.71830688,2.96798462 2.34314575,2.34314575 C2.96798462,1.71830688 3.98104858,1.71830688 4.60588745,2.34314575 C4.65354812,2.39080642 4.69757338,2.44072583 4.73796325,2.49255941 Z" id="Combined-Shape-Copy-2" stroke="#9D8A5F" stroke-width="0.8"></path>
                <circle id="Oval" fill="#FFFFFF" cx="8" cy="8" r="3"></circle>
                <path d="M7.57142857,5 L8,5 C9.65685425,5 11,6.34314575 11,8 L11,8 C11,9.65685425 9.65685425,11 8,11 L7.57142857,11 C7.19047619,10 7,9 7,8 C7,7 7.19047619,6 7.57142857,5 Z" id="Rectangle" fill="#D2C9B0"></path>
                <circle id="Oval-Copy-7" stroke="#9D8A5F" cx="8" cy="8" r="3"></circle>
            </g>
        </g>
    </g>
</svg>