<?xml version="1.0" encoding="UTF-8"?>
<svg width="32px" height="32px" viewBox="0 0 32 32" version="1.1" xmlns="http://www.w3.org/2000/svg" xmlns:xlink="http://www.w3.org/1999/xlink">
    <!-- Generator: Sketch 54.1 (76490) - https://sketchapp.com -->
    <title>ic_twitter</title>
    <desc>Created with Sketch.</desc>
    <g id="Page-1" stroke="none" stroke-width="1" fill="none" fill-rule="evenodd">
        <g id="Group-12" transform="translate(2.000000, 2.000000)">
            <circle id="Oval-Copy-3" fill="#FFFFFF" opacity="0.900000036" cx="14" cy="14" r="14"></circle>
            <g id="twitter-(1)" transform="translate(5.000000, 7.000000)" fill="#76A9EA" fill-rule="nonzero">
                <path d="M17.6773139,1.7622807 C17.2782044,1.93951754 16.8638978,2.07934211 16.4387737,2.18057018 C16.9072117,1.7347807 17.2594161,1.17719298 17.4581168,0.554824561 L17.4581168,0.554824561 C17.5148321,0.377149123 17.3221314,0.223508772 17.161927,0.318640351 L17.161927,0.318640351 C16.5705109,0.66995614 15.9334599,0.933508772 15.2684234,1.1020614 C15.2298394,1.11184211 15.1900292,1.11679825 15.1500876,1.11679825 C15.0289489,1.11679825 14.9111825,1.07175439 14.8185547,0.99 C14.1109927,0.365482456 13.2009635,0.0215350877 12.2561606,0.0215350877 C11.8473285,0.0215350877 11.4345547,0.0853508772 11.0292701,0.21122807 C9.77356204,0.60127193 8.80467153,1.63859649 8.50068613,2.91842105 C8.38664234,3.39846491 8.35576642,3.87894737 8.40884672,4.34649123 C8.41493431,4.4002193 8.38957664,4.4377193 8.37394161,4.45530702 C8.34648175,4.48614035 8.30754745,4.50381579 8.26712409,4.50381579 C8.26261314,4.50381579 8.2579708,4.50359649 8.25337226,4.50315789 C5.50467153,4.24741228 3.0260146,2.92122807 1.2739708,0.768947368 L1.2739708,0.768947368 C1.18462774,0.659166667 1.01329927,0.672631579 0.942087591,0.79495614 L0.942087591,0.79495614 C0.598992701,1.38442982 0.417678832,2.05864035 0.417678832,2.74469298 C0.417678832,3.79609649 0.839474453,4.78692982 1.57213139,5.50925439 C1.2640292,5.43609649 0.965824818,5.32087719 0.688817518,5.16679825 L0.688817518,5.16679825 C0.55480292,5.09223684 0.389912409,5.18807018 0.388029197,5.34157895 L0.388029197,5.34157895 C0.368846715,6.90350877 1.2819854,8.29333333 2.64989781,8.91916667 C2.62235036,8.91982456 2.59480292,8.92013158 2.56721168,8.92013158 C2.35037956,8.92013158 2.13083212,8.89916667 1.91474453,8.85780702 L1.91474453,8.85780702 C1.76382482,8.82894737 1.6370365,8.97232456 1.68389781,9.11885965 L1.68389781,9.11885965 C2.12789781,10.5070614 3.32141606,11.530307 4.74967883,11.7626316 C3.56430657,12.5595175 2.18391241,12.9798684 0.74719708,12.9798684 L0.29929927,12.9796053 C0.16129927,12.9796053 0.0445839416,13.069693 0.00941605839,13.2035526 C-0.0252262774,13.3353947 0.0385839416,13.4744737 0.156262774,13.5430263 C1.77521168,14.4865789 3.62185401,14.9852632 5.49735766,14.9852632 C7.1390365,14.9852632 8.67468613,14.6589912 10.0616934,14.0155702 C11.3332117,13.4257018 12.4568321,12.5825 13.4013285,11.509386 C14.2811825,10.5097368 14.9692117,9.35574561 15.4462336,8.07951754 C15.9009635,6.86298246 16.1413139,5.56491228 16.1413139,4.32561404 L16.1413139,4.26657895 C16.1412701,4.06758772 16.2311387,3.88035088 16.387927,3.75289474 C16.9828905,3.26912281 17.5009927,2.69964912 17.927781,2.06030702 L17.927781,2.06030702 C18.0404672,1.89149123 17.8627445,1.67991228 17.6773139,1.7622807 L17.6773139,1.7622807 Z" id="Path"></path>
            </g>
        </g>
    </g>
</svg>