<?xml version="1.0" encoding="UTF-8"?>
<svg width="32px" height="32px" viewBox="0 0 32 32" version="1.1" xmlns="http://www.w3.org/2000/svg" xmlns:xlink="http://www.w3.org/1999/xlink">
    <!-- Generator: Sketch 54.1 (76490) - https://sketchapp.com -->
    <title>ic_website</title>
    <desc>Created with Sketch.</desc>
    <g id="Page-1" stroke="none" stroke-width="1" fill="none" fill-rule="evenodd">
        <g id="Group-69" transform="translate(4.000000, 5.000000)">
            <g id="Group-46">
                <rect id="Rectangle" fill="#2CA6B1" x="0" y="19" width="24" height="2" rx="1"></rect>
                <g id="Group-45" transform="translate(1.000000, 0.000000)">
                    <path d="M20,2 L20,14 C20,15.1045695 19.1045695,16 18,16 L2,16 L20,2 Z" id="Rectangle-Copy-33" fill="#B6F9FF"></path>
                    <path d="M4,0 L18,0 C20.209139,-4.05812251e-16 22,1.790861 22,4 L22,14 C22,16.209139 20.209139,18 18,18 L4,18 C1.790861,18 2.705415e-16,16.209139 0,14 L0,4 C-2.705415e-16,1.790861 1.790861,4.05812251e-16 4,0 Z M4,2 C2.8954305,2 2,2.8954305 2,4 L2,14 C2,15.1045695 2.8954305,16 4,16 L18,16 C19.1045695,16 20,15.1045695 20,14 L20,4 C20,2.8954305 19.1045695,2 18,2 L4,2 Z" id="Combined-Shape" fill="#2CA6B1"></path>
                </g>
            </g>
            <polyline id="Path-4" stroke="#2CA6B1" stroke-width="2" stroke-linecap="round" stroke-linejoin="round" points="2.5 13.5 6 9.5 10 12.5 15 6 21.5 13"></polyline>
        </g>
    </g>
</svg>