<?xml version="1.0" encoding="UTF-8"?>
<svg width="185px" height="104px" viewBox="0 0 185 104" version="1.1" xmlns="http://www.w3.org/2000/svg" xmlns:xlink="http://www.w3.org/1999/xlink">
    <!-- Generator: Sketch 54.1 (76490) - https://sketchapp.com -->
    <title>Laundry</title>
    <desc>Created with Sketch.</desc>
    <g id="panel-header" stroke="none" stroke-width="1" fill="none" fill-rule="evenodd">
        <g id="Group-47-Copy-9" transform="translate(0.000000, 0.000000)">
            <g id="Group-46">
                <g id="Group-10">
                    <rect id="Rectangle" fill="#3DC9FF" x="0" y="0" width="185" height="104"></rect>
                    <path d="M0,82.0210526 C16.3333333,67.1157895 43,58.5263158 80,56.2526316 C117,53.9789474 152,45.8947368 185,32 L185,104 L0,104 L0,82.0210526 Z" id="Path-2-Copy" fill="#57D0FF"></path>
                </g>
            </g>
            <g id="Group-21" transform="translate(65.000000, 10.000000)" fill="#FFFFFF">
                <circle id="Oval" cx="28" cy="28" r="28"></circle>
            </g>
            <text id="Laundry" font-family="Lato-Bold, Lato" font-size="18" font-weight="bold" fill="#FFFFFF">
                <tspan x="59" y="89">Laundry</tspan>
            </text>
        </g>
        <g id="Group-11" transform="translate(78.000000, 24.000000)" fill-rule="nonzero">
            <g id="washing-machine-(1)">
                <path d="M27.5483871,0 L4.96774194,0 C4.71789946,0 4.51612903,0.202431984 4.51612903,0.451612903 L4.51612903,17.2082598 C4.36926666,17.1784905 4.21843495,17.1612903 4.06451613,17.1612903 C2.81949342,17.1612903 1.80645161,18.1743321 1.80645161,19.4193548 L1.80645161,19.428837 C1.36476183,19.7611517 1.06398058,20.241652 0.952841468,20.7741935 L0.451612903,20.7741935 C0.201770427,20.7741935 0,20.9766255 0,21.2258065 L0,23.0322581 C0,23.281439 0.201770427,23.483871 0.451612903,23.483871 L0.903225806,23.483871 L0.903225806,24.8387097 C0.903225806,26.5818737 2.32179308,28 4.06451613,28 L27.5483871,28 C27.7982296,28 28,27.797568 28,27.5483871 L28,0.451612903 C28,0.202431984 27.7982296,0 27.5483871,0 Z" id="Shape" fill="#FFFFFF"></path>
                <polygon id="Path" fill="#3DC9FF" points="27.0967742 0.903225806 27.0967742 5.41935484 5.41935484 5.41935484 5.41935484 0.903225806"></polygon>
                <path d="M2.50327621,20.0502457 C2.66358998,19.9598349 2.75355974,19.781439 2.72996472,19.5986328 L2.72268777,19.5461505 C2.71695437,19.5046938 2.70967742,19.4632372 2.70967742,19.4193548 C2.70967742,18.6724735 3.31763481,18.0645161 4.06451613,18.0645161 C4.54148817,18.0645161 4.97457789,18.313256 5.22331781,18.7306892 C5.2910156,18.8444745 5.40590349,18.9229776 5.53666835,18.9448085 C5.66809476,18.9673009 5.80194684,18.9298135 5.90338333,18.8435925 C6.07957406,18.6940839 6.37307836,18.516129 6.77419355,18.516129 C7.25733998,18.516129 7.70762977,18.7829511 7.94931324,19.2125126 C8.04325228,19.3805444 8.23465853,19.4698526 8.42253656,19.4361139 C8.8939957,19.352098 9.37692164,19.6758128 9.46667084,20.1554309 C9.49886593,20.3269909 9.62698461,20.4652533 9.79633945,20.5095766 C9.96657635,20.554782 10.1445313,20.4963458 10.2574345,20.3622732 C10.5180821,20.0502457 10.8947203,19.8709677 11.2903226,19.8709677 C11.8782132,19.8709677 12.3750315,20.249811 12.5620275,20.7741935 L1.89686237,20.7741935 C2.00645793,20.4751764 2.21330014,20.2132056 2.50327621,20.0502457 L2.50327621,20.0502457 Z" id="Path" fill="#3DC9FF"></path>
                <path d="M8.58064516,15.8064516 C8.58064516,11.5730216 12.0246345,8.12903226 16.2580645,8.12903226 C20.4914945,8.12903226 23.9354839,11.5730216 23.9354839,15.8064516 C23.9354839,20.0398816 20.4914945,23.483871 16.2580645,23.483871 C15.6207788,23.483871 14.9976058,23.398091 14.390751,23.2459362 C14.4262538,23.1813256 14.4516129,23.1107611 14.4516129,23.0322581 L14.4516129,22.3358745 C15.0368574,22.4975114 15.6415071,22.5806452 16.2580645,22.5806452 C19.9933531,22.5806452 23.0322581,19.5417402 23.0322581,15.8064516 C23.0322581,12.071163 19.9933531,9.03225806 16.2580645,9.03225806 C12.5227759,9.03225806 9.48387097,12.071163 9.48387097,15.8064516 C9.48387097,16.9970073 9.79325228,18.1454448 10.3771737,19.1655431 C10.2759577,19.2111895 10.1776083,19.2630103 10.0841104,19.3236517 C9.85499623,18.9785471 9.51099422,18.7234123 9.1127457,18.5997039 C8.7645539,17.7099294 8.58064516,16.772965 8.58064516,15.8064516 L8.58064516,15.8064516 Z" id="Path" fill="#3DC9FF"></path>
                <path d="M11.3165638,18.9703881 C10.9571257,18.4109438 10.695596,17.8016633 10.5443233,17.1612903 L10.8387097,17.1612903 C11.250189,17.1612903 11.6376323,17.0009765 11.9289315,16.7096774 L12.1935484,16.4455015 C12.4352319,16.203818 12.8550907,16.203818 13.0967742,16.4455015 L13.3613911,16.7096774 C13.9444304,17.2918347 14.9587954,17.2922757 15.5418347,16.7096774 L15.8064516,16.4455015 C16.0481351,16.203818 16.467994,16.203818 16.7096774,16.4455015 L16.9742944,16.7096774 C17.5573337,17.2918347 18.5716986,17.2922757 19.1547379,16.7096774 L19.4193548,16.4455015 C19.6610383,16.203818 20.0808972,16.203818 20.3225806,16.4455015 L20.5871976,16.7096774 C20.8789378,17.0009765 21.26594,17.1612903 21.6774194,17.1612903 L21.9651903,17.1612903 C21.350838,19.7463773 19.0281628,21.6774194 16.2580645,21.6774194 C15.6384199,21.6774194 15.0333292,21.5762034 14.4516129,21.3878843 L14.4516129,21.2258065 C14.4516129,20.9766255 14.2498425,20.7741935 14,20.7741935 L13.5027407,20.7741935 C13.2945753,19.7529927 12.3948778,18.983178 11.3165638,18.9703881 Z" id="Path" fill="#3DC9FF"></path>
                <path d="M10.3870968,15.8064516 C10.3870968,12.5693044 13.0209173,9.93548387 16.2580645,9.93548387 C19.4952117,9.93548387 22.1290323,12.5693044 22.1290323,15.8064516 C22.1290323,15.9590474 22.117786,16.1085559 22.1060988,16.2580645 L21.6774194,16.2580645 C21.5067414,16.2580645 21.3468687,16.1916898 21.2258065,16.0710685 L20.9611895,15.8064516 C20.3781502,15.2242944 19.3637853,15.2238534 18.780746,15.8064516 L18.516129,16.0706275 C18.2744456,16.312311 17.8545867,16.312311 17.6129032,16.0706275 L17.3482863,15.8064516 C16.765247,15.2242944 15.7508821,15.2238534 15.1678427,15.8064516 L14.9032258,16.0706275 C14.6615423,16.312311 14.2416835,16.312311 14,16.0706275 L13.7353831,15.8064516 C13.1523438,15.2242944 12.1379788,15.2238534 11.5549395,15.8064516 L11.2903226,16.0706275 C11.1692603,16.1916898 11.0093876,16.2580645 10.8387097,16.2580645 L10.4042969,16.2580645 C10.3930507,16.1085559 10.3870968,15.9577243 10.3870968,15.8064516 Z" id="Path" fill="#3DC9FF"></path>
                <polygon id="Path" fill="#3DC9FF" points="0.903225806 21.6774194 13.5483871 21.6774194 13.5483871 22.5806452 0.903225806 22.5806452"></polygon>
                <path d="M9.93548387,27.0967742 L4.06451613,27.0967742 C2.81949342,27.0967742 1.80645161,26.0837324 1.80645161,24.8387097 L1.80645161,23.483871 L12.6451613,23.483871 L12.6451613,24.8387097 C12.6451613,26.0837324 11.6321195,27.0967742 10.3870968,27.0967742 L9.93548387,27.0967742 Z" id="Path" fill="#3DC9FF"></path>
                <path d="M12.5951046,27.0967742 C13.1825542,26.5223349 13.5483871,25.7229712 13.5483871,24.8387097 L13.5483871,23.9427608 C14.4191973,24.233178 15.3268334,24.3870968 16.2580645,24.3870968 C20.9896358,24.3870968 24.8387097,20.5380229 24.8387097,15.8064516 C24.8387097,11.0748803 20.9896358,7.22580645 16.2580645,7.22580645 C11.5264932,7.22580645 7.67741935,11.0748803 7.67741935,15.8064516 C7.67741935,16.5412046 7.77907635,17.2591986 7.96011842,17.9580078 C7.60883945,17.7374937 7.20000631,17.6129032 6.77419355,17.6129032 C6.40527345,17.6129032 6.04032258,17.7072833 5.71374119,17.8847971 C5.62399194,17.7873299 5.523217,17.703314 5.41935484,17.6237084 L5.41935484,6.32258065 L27.0967742,6.32258065 L27.0967742,27.0967742 L12.5951046,27.0967742 Z" id="Path" fill="#3DC9FF"></path>
            </g>
            <path d="M7.67741935,4.09462366 C8.19193759,4.09462366 8.61075269,3.67580856 8.61075269,3.16129032 C8.61075269,2.64677208 8.19193759,2.22795699 7.67741935,2.22795699 C7.16290112,2.22795699 6.74408602,2.64677208 6.74408602,3.16129032 C6.74408602,3.67580856 7.16290112,4.09462366 7.67741935,4.09462366 Z M7.67741935,2.70967742 C7.92660027,2.70967742 8.12903226,2.9125504 8.12903226,3.16129032 C8.12903226,3.41003024 7.92660027,3.61290323 7.67741935,3.61290323 C7.42823844,3.61290323 7.22580645,3.41003024 7.22580645,3.16129032 C7.22580645,2.9125504 7.42823844,2.70967742 7.67741935,2.70967742 Z" id="Shape" fill="#FFFFFF"></path>
            <path d="M11.2903226,4.09462366 C11.8048408,4.09462366 12.2236559,3.67580856 12.2236559,3.16129032 C12.2236559,2.64677208 11.8048408,2.22795699 11.2903226,2.22795699 C10.7758043,2.22795699 10.3569892,2.64677208 10.3569892,3.16129032 C10.3569892,3.67580856 10.7758043,4.09462366 11.2903226,4.09462366 Z M11.2903226,2.70967742 C11.5395035,2.70967742 11.7419355,2.9125504 11.7419355,3.16129032 C11.7419355,3.41003024 11.5395035,3.61290323 11.2903226,3.61290323 C11.0411417,3.61290323 10.8387097,3.41003024 10.8387097,3.16129032 C10.8387097,2.9125504 11.0411417,2.70967742 11.2903226,2.70967742 Z" id="Shape" fill="#FFFFFF"></path>
            <path d="M14.9032258,4.09462366 C15.417744,4.09462366 15.8365591,3.67580856 15.8365591,3.16129032 C15.8365591,2.64677208 15.417744,2.22795699 14.9032258,2.22795699 C14.3887076,2.22795699 13.9698925,2.64677208 13.9698925,3.16129032 C13.9698925,3.67580856 14.3887076,4.09462366 14.9032258,4.09462366 Z M14.9032258,2.70967742 C15.1524067,2.70967742 15.3548387,2.9125504 15.3548387,3.16129032 C15.3548387,3.41003024 15.1524067,3.61290323 14.9032258,3.61290323 C14.6540449,3.61290323 14.4516129,3.41003024 14.4516129,3.16129032 C14.4516129,2.9125504 14.6540449,2.70967742 14.9032258,2.70967742 Z" id="Shape" fill="#FFFFFF"></path>
            <polygon id="Path" fill="#FFFFFF" points="25.2903226 3.61290323 26.1935484 3.61290323 26.1935484 4.51612903 25.2903226 4.51612903"></polygon>
            <polygon id="Path" fill="#FFFFFF" points="25.2903226 1.80645161 26.1935484 1.80645161 26.1935484 2.70967742 25.2903226 2.70967742"></polygon>
            <polygon id="Path" fill="#FFFFFF" points="23.483871 3.61290323 24.3870968 3.61290323 24.3870968 4.51612903 23.483871 4.51612903"></polygon>
            <polygon id="Path" fill="#FFFFFF" points="23.483871 1.80645161 24.3870968 1.80645161 24.3870968 2.70967742 23.483871 2.70967742"></polygon>
            <polygon id="Path" fill="#FFFFFF" points="21.6774194 3.61290323 22.5806452 3.61290323 22.5806452 4.51612903 21.6774194 4.51612903"></polygon>
            <polygon id="Path" fill="#FFFFFF" points="21.6774194 1.80645161 22.5806452 1.80645161 22.5806452 2.70967742 21.6774194 2.70967742"></polygon>
            <polygon id="Path" fill="#FFFFFF" points="19.8709677 3.61290323 20.7741935 3.61290323 20.7741935 4.51612903 19.8709677 4.51612903"></polygon>
            <polygon id="Path" fill="#FFFFFF" points="19.8709677 1.80645161 20.7741935 1.80645161 20.7741935 2.70967742 19.8709677 2.70967742"></polygon>
        </g>
    </g>
</svg>