<?xml version="1.0" encoding="UTF-8"?>
<svg width="185px" height="104px" viewBox="0 0 185 104" version="1.1" xmlns="http://www.w3.org/2000/svg" xmlns:xlink="http://www.w3.org/1999/xlink">
    <!-- Generator: Sketch 54.1 (76490) - https://sketchapp.com -->
    <title>Product Rental</title>
    <desc>Created with Sketch.</desc>
    <g id="panel-header" stroke="none" stroke-width="1" fill="none" fill-rule="evenodd">
        <g id="Group-47-Copy-4" transform="translate(0.000000, 0.000000)">
            <g id="Group-46">
                <g id="Group-10">
                    <rect id="Rectangle" fill="#EE711C" x="0" y="0" width="185" height="104"></rect>
                    <path d="M0,82.0210526 C16.3333333,67.1157895 43,58.5263158 80,56.2526316 C117,53.9789474 152,45.8947368 185,32 L185,104 L0,104 L0,82.0210526 Z" id="Path-2-Copy" fill="#F57A27"></path>
                </g>
            </g>
            <g id="Group-21" transform="translate(65.000000, 10.000000)" fill="#FFFFFF">
                <circle id="Oval" cx="28" cy="28" r="28"></circle>
            </g>
            <text id="Product-Rental" font-family="Lato-Bold, Lato" font-size="18" font-weight="bold" fill="#FFFFFF">
                <tspan x="32" y="89">Product Rental</tspan>
            </text>
        </g>
        <g id="Group-7" transform="translate(80.000000, 23.000000)" fill-rule="nonzero">
            <g id="Group-6-Copy" fill="#EE711C">
                <g id="rent">
                    <path d="M8.24347266,8.36996121 C8.20302539,8.32527155 8.16254004,8.30296552 8.12209277,8.30296552 L7.72413281,8.30296552 L7.72413281,8.8250819 L8.13892676,8.8250819 C8.17941211,8.8250819 8.21704102,8.80219397 8.25188965,8.75637931 C8.28673828,8.71060345 8.30418164,8.64647845 8.30418164,8.5640431 C8.30418164,8.47931897 8.28395801,8.41461207 8.24347266,8.36996121 Z" id="Path"></path>
                    <path d="M19.5,2.42251293 L19.5,2.42251293 C19.5,2.10114034 19.239476,1.84061638 18.9181034,1.84061638 L3.01983398,1.84061638 L3.01983398,0.571289062 C3.01983398,0.255774826 2.76405916,-5.79590251e-17 2.44854492,0 L2.44854492,0 C2.13303068,3.38191961e-16 1.87725586,0.255774826 1.87725586,0.571289062 L1.87725586,1.84061638 L0.581896552,1.84061638 C0.26052396,1.84061638 -3.93567916e-17,2.10114034 0,2.42251293 L0,2.42251293 C3.93567916e-17,2.74388552 0.26052396,3.00440948 0.581896552,3.00440948 L1.87725586,3.00440948 L1.85782517,30.5287111 C1.8576026,30.8440026 2.11301642,31.0997773 2.42830792,31.0999999 C2.42844226,31.1 2.4285766,31.1 2.42871094,31.1 L2.42871094,31.1 C2.74429039,31.1 3.00018052,30.8442905 3.0004033,30.5287111 L3.01983398,3.00440948 L6.40380762,3.00440948 L6.40380762,4.70513793 L5.99402542,4.70513793 C5.38460777,4.70513793 4.89057715,5.19916855 4.89057715,5.80858621 L4.89057715,12.2422716 C4.89057715,12.8516892 5.38460777,13.3457198 5.99402542,13.3457198 L16.7166191,13.3457198 C17.3260368,13.3457198 17.8200674,12.8516892 17.8200674,12.2422716 L17.8200674,5.80858621 C17.8200674,5.19916855 17.3260368,4.70513793 16.7166191,4.70513793 L16.3233281,4.70513793 L16.3233281,3.00440948 L18.9181034,3.00440948 C19.239476,3.00440948 19.5,2.74388552 19.5,2.42251293 Z M7.54638574,3.00440948 L15.1807881,3.00440948 L15.1807881,4.70513793 L7.54638574,4.70513793 L7.54638574,3.00440948 Z M8.39185547,10.157819 L8.39185547,10.157819 L7.97032031,9.40903448 L7.72413281,9.40903448 L7.72413281,10.1578578 L7.06654102,10.1578578 L7.06654102,7.71905172 L8.16592969,7.71905172 C8.28281543,7.71905172 8.39071289,7.74368534 8.48969824,7.792875 C8.58860742,7.84218103 8.67350098,7.90622845 8.74430273,7.98525 C8.81510449,8.06423276 8.87074805,8.15473707 8.9112334,8.25660776 C8.95171875,8.35851724 8.97194238,8.46096983 8.97194238,8.5640431 C8.97194238,8.70606466 8.94158789,8.83831034 8.88087891,8.96078017 C8.82016992,9.08328879 8.73584766,9.18349138 8.6279502,9.26131034 L9.13380762,10.157819 L8.39185547,10.157819 Z M11.0492256,10.1578578 L9.34282324,10.1578578 L9.34282324,7.71905172 L11.0188711,7.71905172 L11.0188711,8.30300431 L10.000415,8.30300431 L10.000415,8.64651724 L10.8704883,8.64651724 L10.8704883,9.18923276 L10.000415,9.18923276 L10.000415,9.57394397 L11.0492256,9.57394397 L11.0492256,10.1578578 L11.0492256,10.1578578 Z M13.487373,10.1578578 L12.9646436,10.1578578 L12.0136377,8.95907328 L12.0136377,10.1578578 L11.3560459,10.1578578 L11.3560459,7.71905172 L11.8686445,7.71905172 L12.8297432,8.95907328 L12.8297432,7.71905172 L13.487373,7.71905172 L13.487373,10.1578578 L13.487373,10.1578578 Z M15.7636934,8.30296552 L15.0757471,8.30296552 L15.0757471,10.1578578 L14.4181172,10.1578578 L14.4181172,8.30296552 L13.7267812,8.30296552 L13.7267812,7.71905172 L15.7636934,7.71905172 L15.7636934,8.30296552 Z" id="Shape"></path>
                </g>
            </g>
            <g id="order" transform="translate(6.500000, 15.448276)">
                <polygon id="Path" fill="#EE711C" points="3.85202523 0.277876145 18.780052 0.277876145 18.780052 15.4871132 3.85202523 15.4871132"></polygon>
                <path d="M18.780052,15.742082 L3.85202523,15.742082 C3.70960148,15.742082 3.59389792,15.6277943 3.59389792,15.4871132 L3.59389792,0.277876145 C3.59389792,0.136946161 3.70960148,0.0229073525 3.85202523,0.0229073525 L18.780052,0.0229073525 C18.9227278,0.0229073525 19.0381793,0.136946161 19.0381793,0.277876145 L19.0381793,15.4871132 C19.0381793,15.6277943 18.923232,15.742082 18.780052,15.742082 Z M4.11015254,15.2321445 L18.5219247,15.2321445 L18.5219247,0.532844938 L4.11015254,0.532844938 L4.11015254,15.2321445 Z" id="Shape" fill="#63312D"></path>
                <polygon id="Path" fill="#EE711C" points="0.840203822 0.277876145 15.7682306 0.277876145 15.7682306 15.4871132 0.840203822 15.4871132"></polygon>
                <polygon id="Path" fill="#FFFFFF" points="1.87271307 1.29775132 15.7682306 1.29775132 15.7682306 0.277876145 0.840203822 0.277876145 0.840203822 15.4876112 1.87271307 15.4876112"></polygon>
                <path d="M15.7677264,15.742082 L0.840203822,15.742082 C0.697780013,15.742082 0.582076511,15.6277943 0.582076511,15.4871132 L0.582076511,0.277876145 C0.582076511,0.136946161 0.697780013,0.0229073525 0.840203822,0.0229073525 L15.7682306,0.0229073525 C15.9109064,0.0229073525 16.0263579,0.136946161 16.0263579,0.277876145 L16.0263579,15.4871132 C16.0258537,15.6277943 15.9109064,15.742082 15.7677264,15.742082 Z M1.09833113,15.2321445 L15.5101033,15.2321445 L15.5101033,0.532844938 L1.09833113,0.532844938 L1.09833113,15.2321445 Z" id="Shape" fill="#63312D"></path>
                <polygon id="Path" fill="#F8F3F3" points="10.2464739 5.15166435 9.59762659 5.64591542 8.94903132 5.15166435 8.30119224 5.64591542 7.65536984 5.15166435 7.00853906 5.64591542 6.36221247 5.15166435 6.36221247 0.277876145 10.2464739 0.277876145"></polygon>
                <path d="M8.30119224,5.90088422 C8.24548314,5.90088422 8.18977404,5.88295672 8.14313966,5.84784873 L7.65536984,5.47460827 L7.16608752,5.84784873 C7.07307089,5.91881171 6.94350311,5.91881171 6.84998236,5.84784873 L6.20415996,5.35359766 C6.14114056,5.30529305 6.10408516,5.23084414 6.10408516,5.15166435 L6.10408516,0.277129151 C6.10408516,0.136448143 6.21978873,0.0221603577 6.36221247,0.0221603577 L10.2459698,0.0221603577 C10.3883935,0.0221603577 10.5040971,0.136448143 10.5040971,0.277129151 L10.5040971,5.15166435 C10.5040971,5.23084414 10.4667897,5.30529305 10.4040224,5.35359766 L9.75542711,5.84784873 C9.66266261,5.91881171 9.53359895,5.91930966 9.4400782,5.84834669 L8.94852714,5.47411025 L8.45924482,5.84735071 C8.4126105,5.88295672 8.35690134,5.90088422 8.30119224,5.90088422 L8.30119224,5.90088422 Z M8.94852714,4.89719357 C9.00373212,4.89719357 9.05969334,4.91462305 9.10657972,4.95022906 L9.59762659,5.32421652 L9.98784249,5.02691889 L9.98784249,0.532844938 L6.62033978,0.532844938 L6.62033978,5.02691889 L7.00803494,5.3237185 L7.49731726,4.95022906 C7.59033382,4.87951506 7.71990166,4.87951506 7.81342242,4.95022906 L8.30169643,5.3237185 L8.79123081,4.95022906 C8.83761306,4.91512107 8.89332216,4.89719357 8.94852714,4.89719357 Z" id="Shape" fill="#63312D"></path>
                <polygon id="Path" fill="#63312D" points="5.81999385 15.2316464 11.5262712 15.2316464 11.5262712 15.741584 5.81999385 15.741584"></polygon>
            </g>
        </g>
    </g>
</svg>