<?xml version="1.0" encoding="UTF-8"?>
<svg width="185px" height="104px" viewBox="0 0 185 104" version="1.1" xmlns="http://www.w3.org/2000/svg" xmlns:xlink="http://www.w3.org/1999/xlink">
    <!-- Generator: Sketch 54.1 (76490) - https://sketchapp.com -->
    <title>RoYo Grocery</title>
    <desc>Created with Sketch.</desc>
    <g id="panel-header" stroke="none" stroke-width="1" fill="none" fill-rule="evenodd">
        <g id="Group-47-Copy-2">
            <g id="Group-46">
                <g id="Group-10">
                    <rect id="Rectangle" fill="#8EC543" x="0" y="0" width="185" height="104"></rect>
                    <path d="M0,82.0210526 C16.3333333,67.1157895 43,58.5263158 80,56.2526316 C117,53.9789474 152,45.8947368 185,32 L185,104 L0,104 L0,82.0210526 Z" id="Path-2-Copy" fill="#9AD34D"></path>
                </g>
            </g>
            <g id="Group-21" transform="translate(65.000000, 10.000000)" fill="#FFFFFF">
                <circle id="Oval" cx="28" cy="28" r="28"></circle>
            </g>
            <text id="RoYo-Grocery" font-family="Lato-Bold, Lato" font-size="18" font-weight="bold" fill="#FFFFFF">
                <tspan x="36" y="89">RoYo Grocery</tspan>
            </text>
        </g>
        <g id="groceries-(1)" transform="translate(79.000000, 23.000000)" fill-rule="nonzero">
            <path d="M21.4260175,10.4002869 C22.1804211,9.4732377 22.3511228,8.05241803 21.3621579,6.69036885 C21.3245789,6.63860656 21.2779123,6.59188525 21.2262105,6.5542623 C19.8370175,5.54471311 18.3805263,5.74635246 17.4565263,6.5477459 C17.2693684,6.71004098 17.006193,6.76020492 16.7840351,6.65065574 C16.415614,6.46905738 16.001386,6.36663934 15.5629649,6.36663934 C15.5503158,6.36663934 15.5380351,6.36836066 15.525386,6.36848361 C15.225614,5.15729508 14.1358246,4.25827869 12.8334561,4.25827869 C12.0934211,4.25827869 11.4216667,4.54856557 10.9241754,5.02118852 C10.706193,5.2282377 10.3737544,5.27127049 10.1292456,5.09631148 C9.67596491,4.77209016 9.12173684,4.58053279 8.52194737,4.58053279 C7.24549123,4.58053279 6.17203509,5.44352459 5.84794737,6.61819672 C5.78482456,6.84713115 5.60147368,7.02098361 5.36863158,7.06659836 C4.09217544,7.31680328 3.12850877,8.43983607 3.12850877,9.79094262 C3.12850877,10.0454508 3.16350877,10.2914754 3.22835088,10.5252049 C3.30535088,10.8033197 3.18708772,11.0953279 2.93582456,11.2368443 C2.09042105,11.7129098 1.51887719,12.6184426 1.51887719,13.6587295 C1.51887719,13.9556557 1.56640351,14.2411475 1.65249123,14.5093033 L1.652,14.5097951 L1.65494737,14.5161885 C1.72396491,14.7292623 1.81877193,14.930041 1.93433333,15.1170492 C1.94514035,15.1343852 1.95496491,15.1523361 1.96368421,15.1707787 L5.96817544,23.6605328 C6.06961404,23.8755738 6.28587719,24.0127869 6.52338596,24.0127869 L18.6526667,24.0127869 C18.9345088,24.0127869 19.1802456,23.8206148 19.2484035,23.5468033 L21.7205088,13.622582 L21.7187895,13.6193852 C21.8217018,13.3289754 21.8805263,13.017541 21.8805263,12.6918443 C21.8805263,12.1093033 21.7009825,11.5691803 21.3947018,11.122623 C21.2440175,10.902541 21.2576491,10.6072131 21.4260175,10.4002869 L21.4260175,10.4002869 Z" id="Path" fill="#8EC543"></path>
            <path d="M10.4988947,10.1467623 C10.3151754,10.1467623 10.1632632,9.9977459 10.1519649,9.80668033 L9.99808772,7.18967213 C9.98580702,6.98127049 10.1447193,6.80532787 10.3450175,6.80532787 L10.6527719,6.80532787 C10.8530702,6.80532787 11.0118596,6.98127049 10.9997018,7.18967213 L10.8458246,9.80668033 C10.8345263,9.9977459 10.682614,10.1467623 10.4988947,10.1467623 Z" id="Path" fill="#8EC543"></path>
            <path d="M10.4988947,10.3926639 C10.1857368,10.3926639 9.92563158,10.1415984 9.90684211,9.82118852 L9.75296491,7.20405738 C9.74301754,7.0345082 9.80319298,6.86729508 9.91838596,6.74508197 C10.0311228,6.62532787 10.1826667,6.55942623 10.3451404,6.55942623 L10.6528947,6.55942623 C10.8152456,6.55942623 10.9667895,6.62532787 11.0795263,6.74508197 C11.1947193,6.86729508 11.2548947,7.0345082 11.2449474,7.20405738 L11.0910702,9.82106557 C11.0720351,10.1415984 10.8119298,10.3926639 10.4988947,10.3926639 L10.4988947,10.3926639 Z M10.3450175,7.05122951 C10.3119825,7.05122951 10.2891404,7.06831967 10.2757544,7.08245902 C10.2624912,7.09659836 10.2405088,7.12745902 10.2432105,7.17528689 L10.3970877,9.79229508 C10.4006491,9.85315574 10.4454737,9.90098361 10.4988947,9.90098361 C10.5523158,9.90098361 10.5970175,9.85315574 10.6005789,9.79217213 L10.7544561,7.17528689 C10.7571579,7.12745902 10.7352982,7.09659836 10.7219123,7.08245902 C10.7085263,7.06819672 10.6855614,7.05122951 10.6527719,7.05122951 L10.3450175,7.05122951 Z" id="Shape" fill="#FFFFFF"></path>
            <path d="M13.597193,9.02827869 C12.5044561,8.79295082 11.3988246,9.13610656 10.4906667,9.88168033 C9.58250877,9.13598361 8.47675439,8.79295082 7.38414035,9.02827869 C5.17901754,9.50311475 3.86203509,12.152582 4.44266667,14.9459016 C5.02329825,17.7393443 7.28159649,19.6188934 9.4867193,19.1440574 C9.84654386,19.0665984 10.1825439,18.9308607 10.4906667,18.7464344 C10.7987895,18.9308607 11.1347895,19.0665984 11.494614,19.1440574 C13.6997368,19.6188934 15.9580351,17.7393443 16.5386667,14.9459016 C17.1191754,12.152582 15.8023158,9.50311475 13.597193,9.02827869 L13.597193,9.02827869 Z" id="Path" fill="#8EC543"></path>
            <path d="M12.1754561,19.4621311 C11.9291053,19.4621311 11.6839825,19.4365574 11.4427895,19.3845492 C11.1112105,19.3131148 10.7915439,19.1938525 10.4905439,19.0295902 C10.1896667,19.1938525 9.86987719,19.3131148 9.53829825,19.3845492 C8.57794737,19.5911066 7.55238596,19.3815984 6.65024561,18.7936475 C5.43089474,17.9993852 4.53857895,16.615082 4.20196491,14.9959426 C3.59492982,12.075123 4.99910526,9.29016393 7.33219298,8.78790984 C8.40564912,8.55639344 9.51963158,8.83389344 10.4904211,9.56877049 C11.4612105,8.83389344 12.575807,8.5567623 13.6487719,8.78790984 C15.9818596,9.29016393 17.3861579,12.075123 16.7788772,14.9959426 C16.442386,16.615082 15.5500702,17.9992623 14.3308421,18.7936475 C13.6552807,19.2339344 12.9103333,19.4621311 12.1754561,19.4621311 Z M10.4905439,18.5006557 C10.5341404,18.5006557 10.5777368,18.5123361 10.6165439,18.5354508 C10.9075965,18.7096721 11.220386,18.8336066 11.5460702,18.9038115 C12.3892632,19.0852869 13.2598421,18.9047951 14.063,18.3815164 C15.1732982,17.6580738 15.988,16.387623 16.2979649,14.8958607 C16.8503509,12.2387705 15.6155263,9.71434426 13.5453684,9.26864754 C12.5636491,9.05704918 11.5342807,9.34278689 10.6462632,10.0718852 C10.5556316,10.1461475 10.4253333,10.1461475 10.3347018,10.0718852 C9.4465614,9.34254098 8.41657895,9.05704918 7.4357193,9.26864754 C5.36568421,9.71434426 4.13073684,12.2386475 4.683,14.8958607 C4.99308772,16.387623 5.80778947,17.6580738 6.91821053,18.3815164 C7.72124561,18.9047951 8.59145614,19.0855328 9.43489474,18.9038115 C9.76070175,18.8336066 10.0734912,18.7096721 10.3644211,18.5354508 C10.4033509,18.5122131 10.4468246,18.5006557 10.4905439,18.5006557 Z" id="Shape" fill="#FFFFFF"></path>
            <path d="M18.6227018,24.2214344 C16.6996667,23.7055328 15.5584211,21.7266393 16.0737193,19.8013525 L20.5912982,2.92168033 C21.1065965,0.996393443 23.0831754,-0.146188525 25.0062105,0.369713115 C26.9292456,0.885614754 28.0704912,2.8645082 27.555193,4.78979508 L23.037614,21.6694672 C22.5223158,23.5947541 20.545614,24.7373361 18.6227018,24.2214344 Z" id="Path" fill="#8EC543"></path>
            <path d="M21.2168772,7.80110656 L19.414807,7.31766393 L20.1022807,4.74897541 L21.9043509,5.23241803 C22.6128246,5.4225 23.0333158,6.15159836 22.8434561,6.86090164 C22.6534737,7.57020492 21.9253509,7.99118852 21.2168772,7.80110656 Z" id="Path" fill="#FFFFFF"></path>
            <path d="M19.7436842,13.3053689 L17.941614,12.8219262 L18.6290877,10.2532377 L20.4311579,10.7366803 C21.1396316,10.9267623 21.5601228,11.6558607 21.3702632,12.3651639 C21.1804035,13.0744672 20.4521579,13.4954508 19.7436842,13.3053689 L19.7436842,13.3053689 Z" id="Path" fill="#FFFFFF"></path>
            <path d="M18.270614,18.8096311 L16.4685439,18.3261885 L17.1560175,15.7575 L18.9580877,16.2409426 C19.6665614,16.4310246 20.0870526,17.160123 19.897193,17.8694262 C19.7072105,18.5787295 18.9790877,18.9997131 18.270614,18.8096311 Z" id="Path" fill="#F9CFCF"></path>
            <path d="M19.5546842,24.5907787 C19.2256842,24.5907787 18.8916491,24.5481148 18.5590877,24.4589754 C17.5655789,24.192541 16.7352807,23.5547951 16.2210877,22.6630328 C15.7068947,21.7712705 15.5702105,20.732459 15.8364561,19.7377869 L20.3540351,2.85811475 C20.9035965,0.804959016 23.0184561,-0.417909836 25.0697018,0.132295082 C27.1204561,0.682377049 28.3418947,2.80020492 27.7923333,4.85348361 L23.2747544,21.7330328 C22.8143509,23.4533607 21.2545789,24.5906557 19.5546842,24.5907787 L19.5546842,24.5907787 Z M24.0739825,0.492418033 C22.5908421,0.492418033 21.2302632,1.4845082 20.8284386,2.98536885 L16.3108596,19.864918 C16.0786316,20.7327049 16.1977544,21.6389754 16.6463684,22.4170082 C17.0949825,23.194918 17.8194211,23.7515164 18.6860702,23.9838934 C20.4753684,24.4643852 22.3209123,23.3971721 22.8002281,21.6057787 L27.3179298,4.72622951 C27.7972456,2.93495902 26.7317719,1.08713115 24.9425965,0.607254098 C24.6526491,0.52954918 24.3608596,0.492418033 24.0739825,0.492418033 L24.0739825,0.492418033 Z" id="Shape" fill="#FFFFFF"></path>
            <path d="M18.6138596,19.1009016 C18.479386,19.1009016 18.3428246,19.0834426 18.207,19.0470492 L16.4049298,18.5636066 C16.3419298,18.5467623 16.288386,18.5054508 16.2557193,18.4490164 C16.2231754,18.392582 16.2143333,18.3254508 16.2312807,18.262377 L16.9187544,15.6936885 C16.9537544,15.562623 17.0879825,15.4843033 17.2195088,15.5198361 L19.0215789,16.0032787 C19.4277018,16.1122131 19.7670175,16.3728689 19.9771404,16.737418 C20.187386,17.1018443 20.2431404,17.5263934 20.1343333,17.9329918 C19.946193,18.6360246 19.3087018,19.1009016 18.6138596,19.1009016 L18.6138596,19.1009016 Z M16.7692982,18.1523361 L18.3341053,18.5720902 C18.9104386,18.7271311 19.5053158,18.3831148 19.6599298,17.8058607 C19.7347193,17.5262705 19.6964035,17.2342623 19.5517368,16.9835656 C19.407193,16.7328689 19.1737368,16.5534836 18.8943509,16.4786066 L17.3295439,16.0588525 L16.7692982,18.1523361 Z" id="Shape" fill="#3762CC"></path>
            <path d="M1.81680702,17.3719672 L2.66614035,27.6833607 C2.76254386,28.8536066 3.73922807,29.7540984 4.91203509,29.7540984 L13.0699825,29.7540984 L14.2425439,29.7540984 L22.4003684,29.7540984 C23.5731754,29.7540984 24.5498596,28.8536066 24.6462632,27.6834836 L25.4955965,17.3719672 L1.81680702,17.3719672 L1.81680702,17.3719672 Z" id="Path" fill="#8EC543"></path>
            <path d="M26.7898596,16.7803279 L26.9889298,14.3629918 C27.0198772,13.987377 26.7236667,13.6653689 26.3472632,13.6653689 L0.965017544,13.6653689 C0.588491228,13.6653689 0.292403509,13.987377 0.323350877,14.3629918 L0.522421053,16.7803279 C0.549929825,17.1146311 0.829070175,17.3719672 1.16408772,17.3719672 L26.148193,17.3719672 C26.4833333,17.3719672 26.7623509,17.1147541 26.7898596,16.7803279 Z" id="Path" stroke="#FFFFFF" stroke-width="0.5" fill="#8EC543"></path>
            <path d="M13.6562632,27.6330738 C12.9895439,27.6330738 12.4489474,27.0919672 12.4489474,26.4244672 L12.4489474,20.1922131 C12.4489474,19.5247131 12.9894211,18.9836066 13.6561404,18.9836066 C14.3228596,18.9836066 14.8633333,19.5247131 14.8633333,20.1922131 L14.8633333,26.4244672 C14.8634561,27.0919672 14.3229825,27.6330738 13.6562632,27.6330738 Z" id="Path" fill="#FFFFFF"></path>
            <path d="M20.0949123,27.6330738 C19.428193,27.6330738 18.8875965,27.0919672 18.8875965,26.4244672 L18.8875965,20.1922131 C18.8875965,19.5247131 19.4280702,18.9836066 20.0947895,18.9836066 C20.7615088,18.9836066 21.3019825,19.5247131 21.3019825,20.1922131 L21.3019825,26.4244672 C21.3022281,27.0919672 20.7616316,27.6330738 20.0949123,27.6330738 L20.0949123,27.6330738 Z" id="Path" fill="#FFFFFF"></path>
            <path d="M7.21749123,27.6330738 C6.55077193,27.6330738 6.01017544,27.0919672 6.01017544,26.4244672 L6.01017544,20.1922131 C6.01017544,19.5247131 6.55064912,18.9836066 7.21736842,18.9836066 C7.88408772,18.9836066 8.4245614,19.5247131 8.4245614,20.1922131 L8.4245614,26.4244672 C8.42480702,27.0919672 7.88433333,27.6330738 7.21749123,27.6330738 L7.21749123,27.6330738 Z" id="Path" fill="#FFFFFF"></path>
        </g>
    </g>
</svg>