<?xml version="1.0" encoding="UTF-8"?>
<svg width="185px" height="104px" viewBox="0 0 185 104" version="1.1" xmlns="http://www.w3.org/2000/svg" xmlns:xlink="http://www.w3.org/1999/xlink">
    <!-- Generator: Sketch 54.1 (76490) - https://sketchapp.com -->
    <title>RoYo Books</title>
    <desc>Created with Sketch.</desc>
    <g id="panel-header" stroke="none" stroke-width="1" fill="none" fill-rule="evenodd">
        <g id="Group-47-Copy-3">
            <g id="Group-46">
                <g id="Group-10">
                    <rect id="Rectangle" fill="#7C4924" x="0" y="0" width="185" height="104"></rect>
                    <path d="M0,82.0210526 C16.3333333,67.1157895 43,58.5263158 80,56.2526316 C117,53.9789474 152,45.8947368 185,32 L185,104 L0,104 L0,82.0210526 Z" id="Path-2-Copy" fill="#8F552C"></path>
                </g>
            </g>
            <g id="Group-21" transform="translate(65.000000, 10.000000)" fill="#FFFFFF">
                <circle id="Oval" cx="28" cy="28" r="28"></circle>
            </g>
            <text id="RoYo-Books" font-family="Lato-Bold, Lato" font-size="18" font-weight="bold" fill="#FFFFFF">
                <tspan x="44" y="89">RoYo Books</tspan>
            </text>
        </g>
        <g id="open-book" transform="translate(78.000000, 27.000000)" fill="#7C4924" fill-rule="nonzero">
            <path d="M4.58909091,0.00496475771 C4.58828283,0.00496475771 4.58737374,0.00496475771 4.58656566,0.00496475771 C4.30282828,0.00496475771 4.0359596,0.115911894 3.83444444,0.31754185 C3.63070707,0.521400881 3.51848485,0.79284141 3.51848485,1.08181057 L3.51848485,17.2289251 C3.51848485,17.8210485 4.00060606,18.3039471 4.59333333,18.305467 C7.09212121,18.3114449 11.2785859,18.833859 14.1666667,21.8655022 L14.1666667,4.96708811 C14.1666667,4.76637004 14.1155556,4.57781057 14.0190909,4.42177533 C11.6486869,0.592629956 7.09353535,0.0108414097 4.58909091,0.00496475771 Z" id="Path"></path>
            <path d="M26.4815152,17.2289251 L26.4815152,1.08170925 C26.4815152,0.792740088 26.3692929,0.521299559 26.1655556,0.317440529 C25.9640404,0.115810573 25.6969697,0.00486343612 25.4135354,0.00486343612 C25.4126263,0.00486343612 25.4117172,0.00486343612 25.4109091,0.00486343612 C22.9065657,0.0108414097 18.3514141,0.592629956 15.9809091,4.42177533 C15.8844444,4.57781057 15.8334343,4.76637004 15.8334343,4.96708811 L15.8334343,21.8654009 C18.7215152,18.8337577 22.9079798,18.3113436 25.4067677,18.3053656 C25.9993939,18.3038458 26.4815152,17.8209471 26.4815152,17.2289251 Z" id="Path"></path>
            <path d="M28.9265657,3.72873568 L28.1481818,3.72873568 L28.1481818,17.2289251 C28.1481818,18.7407445 26.920202,19.9735242 25.4107071,19.9772731 C23.2912121,19.9823392 19.7964646,20.3980617 17.3214141,22.7478106 C21.6020202,21.6964978 26.1145455,22.3799119 28.6862626,22.9677797 C29.0073737,23.0411366 29.3391919,22.965348 29.5964646,22.7596652 C29.8528283,22.554489 29.999899,22.2477885 29.999899,21.9185947 L29.999899,4.80537885 C30,4.21173568 29.5183838,3.72873568 28.9265657,3.72873568 Z" id="Path"></path>
            <path d="M1.85171717,17.2289251 L1.85171717,3.72873568 L1.07333333,3.72873568 C0.481616162,3.72873568 0,4.21173568 0,4.80537885 L0,21.9182907 C0,22.2475859 0.147070707,22.554185 0.403434343,22.7593612 C0.660505051,22.9649427 0.992020202,23.0410352 1.31363636,22.9674758 C3.88535354,22.3795066 8.3979798,21.6961938 12.6783838,22.7475066 C10.2034343,20.397859 6.70868687,19.9822379 4.58919192,19.9771718 C3.07979798,19.9735242 1.85171717,18.7407445 1.85171717,17.2289251 Z" id="Path"></path>
        </g>
    </g>
</svg>