<?xml version="1.0" encoding="UTF-8"?>
<svg width="185px" height="104px" viewBox="0 0 185 104" version="1.1" xmlns="http://www.w3.org/2000/svg" xmlns:xlink="http://www.w3.org/1999/xlink">
    <!-- Generator: Sketch 54.1 (76490) - https://sketchapp.com -->
    <title>Space Rental</title>
    <desc>Created with Sketch.</desc>
    <g id="panel-header" stroke="none" stroke-width="1" fill="none" fill-rule="evenodd">
        <g id="Group-47-Copy-5" transform="translate(0.000000, 0.000000)">
            <g id="Group-46">
                <g id="Group-10">
                    <rect id="Rectangle" fill="#436BC5" x="0" y="0" width="185" height="104"></rect>
                    <path d="M0,82.0210526 C16.3333333,67.1157895 43,58.5263158 80,56.2526316 C117,53.9789474 152,45.8947368 185,32 L185,104 L0,104 L0,82.0210526 Z" id="Path-2-Copy" fill="#4B74D0"></path>
                </g>
            </g>
            <g id="Group-21" transform="translate(65.000000, 10.000000)" fill="#FFFFFF">
                <circle id="Oval" cx="28" cy="28" r="28"></circle>
            </g>
            <text id="Space-Rental" font-family="Lato-Bold, Lato" font-size="18" font-weight="bold" fill="#FFFFFF">
                <tspan x="41" y="89">Space Rental</tspan>
            </text>
        </g>
        <g id="Group-9" transform="translate(79.000000, 24.000000)">
            <g id="ic_home" stroke-linecap="round" stroke-linejoin="round" stroke-width="0.933333333">
                <polygon id="Rectangle-1-Copy-2" stroke="#436BC5" fill="#436BC5" points="0 11.2 14 0 28 11.2"></polygon>
                <path d="M25.2,13.3 L25.2,25.9064434 C25.2,26.6760835 24.5775168,27.3 23.7987797,27.3 L4.20122032,27.3 C3.42734771,27.3 2.8,26.6803732 2.8,25.9064434 L2.8,13.3 L25.2,13.3 Z" id="Rectangle-1-Copy" stroke="#436BC5" fill="#436BC5"></path>
                <path d="M16.8,24.2666667 L11.2,24.2666667" id="Rectangle-1" stroke="#FFFFFF"></path>
            </g>
            <g id="Group-6-Copy" transform="translate(6.000000, 17.000000)" fill="#FFFFFF" fill-rule="nonzero">
                <g id="rent">
                    <path d="M2.47440972,4.52618319 L1.72501389,3.21581034 L1.28734722,3.21581034 L1.28734722,4.52625108 L0.118295139,4.52625108 L0.118295139,0.258340517 L2.07276389,0.258340517 C2.28056076,0.258340517 2.47237847,0.301449353 2.64835243,0.38753125 C2.82419097,0.47381681 2.97511285,0.585899784 3.10098264,0.7241875 C3.22685243,0.862407328 3.32577431,1.02078987 3.39774826,1.19906358 C3.46972222,1.37740517 3.50567535,1.5566972 3.50567535,1.73707543 C3.50567535,1.98561315 3.45171181,2.2170431 3.34378472,2.4313653 C3.23585764,2.64575539 3.08595139,2.82110991 2.89413368,2.9572931 L3.79343576,4.52618319 L2.47440972,4.52618319 Z M2.21061806,1.39743211 C2.13871181,1.31922522 2.06673785,1.28018966 1.9948316,1.28018966 L1.28734722,1.28018966 L1.28734722,2.19389332 L2.02475868,2.19389332 C2.09673264,2.19389332 2.16362847,2.15383944 2.2255816,2.07366379 C2.28753472,1.99355603 2.31854514,1.88133728 2.31854514,1.73707543 C2.31854514,1.58880819 2.28259201,1.47557112 2.21061806,1.39743211 Z M7.19862326,4.52625108 L4.1650191,4.52625108 L4.1650191,0.258340517 L7.14465972,0.258340517 L7.14465972,1.28025754 L5.33407118,1.28025754 L5.33407118,1.88140517 L6.88086806,1.88140517 L6.88086806,2.83115733 L5.33407118,2.83115733 L5.33407118,3.50440194 L7.19862326,3.50440194 L7.19862326,4.52625108 L7.19862326,4.52625108 Z M11.5331076,4.52625108 L10.6038108,4.52625108 L8.91313368,2.42837823 L8.91313368,4.52625108 L7.7440816,4.52625108 L7.7440816,0.258340517 L8.65536806,0.258340517 L10.3639878,2.42837823 L10.3639878,0.258340517 L11.5331076,0.258340517 L11.5331076,4.52625108 L11.5331076,4.52625108 Z M15.5798993,1.28018966 L14.3568837,1.28018966 L14.3568837,4.52625108 L13.1877639,4.52625108 L13.1877639,1.28018966 L11.9587222,1.28018966 L11.9587222,0.258340517 L15.5798993,0.258340517 L15.5798993,1.28018966 Z" id="Shape"></path>
                </g>
            </g>
        </g>
    </g>
</svg>